<svg width="12" height="12" viewBox="0 0 12 12" fill="none" xmlns="http://www.w3.org/2000/svg">
<path d="M10.3143 7.9992C10.2754 7.95233 10.2372 7.90545 10.1997 7.86022C9.68408 7.23655 9.37213 6.86014 9.37213 5.0946C9.37213 4.18053 9.15346 3.43054 8.72244 2.86804C8.40463 2.45249 7.97502 2.13725 7.40877 1.90429C7.40148 1.90023 7.39498 1.89492 7.38955 1.88858C7.18588 1.20655 6.62854 0.749756 5.99994 0.749756C5.37135 0.749756 4.81424 1.20655 4.61057 1.88788C4.60513 1.89398 4.59872 1.89913 4.59159 1.90311C3.27018 2.4471 2.62799 3.49077 2.62799 5.09389C2.62799 6.86014 2.31651 7.23655 1.80042 7.85952C1.76292 7.90475 1.72471 7.95069 1.68581 7.9985C1.58531 8.1197 1.52163 8.26716 1.50232 8.42342C1.483 8.57967 1.50886 8.73819 1.57682 8.88022C1.72143 9.18491 2.02963 9.37405 2.38143 9.37405H9.62104C9.97119 9.37405 10.2773 9.18514 10.4224 8.88186C10.4906 8.7398 10.5167 8.58115 10.4976 8.42471C10.4784 8.26827 10.4148 8.1206 10.3143 7.9992Z" fill="white"/>
<path d="M5.99996 11.2499C6.33864 11.2496 6.67093 11.1577 6.96159 10.9838C7.25225 10.81 7.49044 10.5607 7.65089 10.2625C7.65845 10.2482 7.66219 10.2322 7.66173 10.216C7.66128 10.1998 7.65665 10.1841 7.6483 10.1702C7.63995 10.1564 7.62816 10.1449 7.61408 10.137C7.59999 10.129 7.58409 10.1249 7.56792 10.1249H4.43246C4.41627 10.1248 4.40034 10.129 4.38622 10.1369C4.37211 10.1448 4.36029 10.1563 4.35191 10.1701C4.34353 10.184 4.33888 10.1998 4.33842 10.2159C4.33795 10.2321 4.34169 10.2481 4.34926 10.2625C4.50969 10.5607 4.74784 10.8099 5.03846 10.9838C5.32907 11.1576 5.66132 11.2496 5.99996 11.2499Z" fill="white"/>
</svg>
