<svg width="104" height="22" viewBox="0 0 104 22" fill="none" xmlns="http://www.w3.org/2000/svg">
<g clip-path="url(#clip0_1701_2041)">
<path d="M43.2497 4.23945V16.958H40.9393V6.97746H40.9085L36.7805 16.958H35.2402L31.0199 6.97746H30.989V16.958H28.8634V4.23945H32.1905L36.0104 13.6606H36.072L40.1076 4.23945H43.2497ZM45.1597 5.21101C45.1597 4.85771 45.2829 4.5633 45.5602 4.32778C45.8374 4.09225 46.1455 3.97448 46.5151 3.97448C46.9156 3.97448 47.2545 4.09225 47.5009 4.32778C47.7474 4.5633 47.9014 4.85771 47.9014 5.21101C47.9014 5.5643 47.7782 5.85871 47.5009 6.09423C47.2237 6.32976 46.9156 6.44753 46.5151 6.44753C46.1147 6.44753 45.8066 6.32976 45.5602 6.09423C45.3137 5.82927 45.1597 5.53486 45.1597 5.21101ZM47.655 7.83125V16.958H45.4061V7.83125H47.655ZM54.463 15.3976C54.8019 15.3976 55.1716 15.3387 55.572 15.1621C55.9725 15.0148 56.3422 14.8088 56.681 14.5732V16.5752C56.3114 16.7813 55.9109 16.9285 55.4488 17.0168C54.9867 17.1052 54.4938 17.164 53.9393 17.164C52.5223 17.164 51.3825 16.7519 50.5199 15.8981C49.6265 15.0443 49.1952 13.955 49.1952 12.6596C49.1952 11.1875 49.6573 9.98044 50.5507 9.03833C51.4441 8.09622 52.7071 7.62516 54.3706 7.62516C54.8019 7.62516 55.2332 7.68405 55.6337 7.77237C56.0649 7.86069 56.4038 8.0079 56.6502 8.12566V10.1865C56.3114 9.951 55.9417 9.74491 55.6028 9.62715C55.2332 9.50939 54.8635 9.42106 54.4938 9.42106C53.6005 9.42106 52.8919 9.68603 52.3374 10.2454C51.7829 10.8048 51.5365 11.5408 51.5365 12.4829C51.5365 13.3956 51.8137 14.1316 52.3374 14.6321C52.8611 15.1326 53.5697 15.3976 54.463 15.3976ZM63.0578 7.68405C63.2427 7.68405 63.3967 7.68405 63.5507 7.71349C63.7048 7.74293 63.828 7.77237 63.9204 7.80181V9.98044C63.7972 9.89212 63.6431 9.8038 63.3967 9.74491C63.1503 9.68603 62.9038 9.62715 62.565 9.62715C62.0104 9.62715 61.5484 9.86268 61.1787 10.3043C60.809 10.7459 60.5934 11.423 60.5934 12.3652V16.958H58.3446V7.83125H60.5934V9.27386H60.6242C60.8398 8.77336 61.1479 8.39063 61.5484 8.09622C61.9796 7.83125 62.4725 7.68405 63.0578 7.68405ZM64.0436 12.5418C64.0436 11.0403 64.5057 9.83324 65.3683 8.95001C66.2616 8.06678 67.4939 7.62516 69.065 7.62516C70.5436 7.62516 71.7143 8.03734 72.546 8.89113C73.3778 9.74491 73.8091 10.8931 73.8091 12.3357C73.8091 13.8078 73.347 14.9854 72.4844 15.8686C71.591 16.7519 70.3896 17.1935 68.8493 17.1935C67.3706 17.1935 66.2 16.7813 65.3375 15.957C64.4749 15.1032 64.0436 13.955 64.0436 12.5418ZM66.3849 12.4535C66.3849 13.3956 66.6005 14.1316 67.0626 14.6321C67.5247 15.1326 68.1716 15.3976 69.0034 15.3976C69.8043 15.3976 70.4512 15.1621 70.8825 14.6321C71.3138 14.1316 71.5294 13.3956 71.5294 12.3946C71.5294 11.423 71.3138 10.687 70.8825 10.1571C70.4512 9.65659 69.8043 9.39162 69.0342 9.39162C68.2024 9.39162 67.5863 9.65659 67.1242 10.1865C66.6005 10.7459 66.3849 11.4819 66.3849 12.4535ZM77.1669 10.2454C77.1669 10.5398 77.2593 10.8048 77.4749 10.9814C77.6906 11.1581 78.1219 11.3642 78.8304 11.6291C79.7238 11.9824 80.3707 12.3652 80.7095 12.7773C81.0792 13.2189 81.264 13.7194 81.264 14.3377C81.264 15.1915 80.9252 15.8686 80.2166 16.3986C79.5389 16.9285 78.5839 17.164 77.4133 17.164C77.0128 17.164 76.5816 17.1052 76.0887 17.0168C75.5958 16.9285 75.1953 16.8107 74.8564 16.6635V14.5438C75.2569 14.8088 75.719 15.0443 76.1811 15.1915C76.6432 15.3387 77.0745 15.427 77.4749 15.427C77.9678 15.427 78.3683 15.3681 78.5839 15.2209C78.8304 15.0737 78.9536 14.8676 78.9536 14.5438C78.9536 14.2494 78.8304 14.0139 78.5839 13.7783C78.3375 13.5722 77.8446 13.3367 77.1669 13.0717C76.3351 12.7479 75.7498 12.3652 75.411 11.953C75.0721 11.5408 74.8873 11.0109 74.8873 10.3632C74.8873 9.53883 75.2261 8.86169 75.9038 8.33175C76.5816 7.80181 77.4749 7.53684 78.5531 7.53684C78.892 7.53684 79.2617 7.56628 79.6621 7.65461C80.0626 7.74293 80.4323 7.83125 80.7095 7.91957V10.0099C80.4015 9.83324 80.0626 9.65659 79.6621 9.50939C79.2617 9.36218 78.8612 9.3033 78.4915 9.3033C78.0602 9.3033 77.7214 9.39162 77.5057 9.53883C77.2901 9.74492 77.1669 9.951 77.1669 10.2454ZM82.219 12.5418C82.219 11.0403 82.6811 9.83324 83.5437 8.95001C84.437 8.06678 85.6693 7.62516 87.2404 7.62516C88.719 7.62516 89.8897 8.03734 90.7214 8.89113C91.5532 9.74491 91.9844 10.8931 91.9844 12.3357C91.9844 13.8078 91.5224 14.9854 90.6598 15.8686C89.7664 16.7519 88.565 17.1935 87.0247 17.1935C85.546 17.1935 84.3754 16.7813 83.5129 15.957C82.6811 15.1032 82.219 13.955 82.219 12.5418ZM84.5603 12.4535C84.5603 13.3956 84.7759 14.1316 85.238 14.6321C85.7001 15.1326 86.347 15.3976 87.1787 15.3976C87.9797 15.3976 88.6266 15.1621 89.0579 14.6321C89.4892 14.1316 89.7048 13.3956 89.7048 12.3946C89.7048 11.423 89.4892 10.687 89.0579 10.1571C88.6266 9.65659 87.9797 9.39162 87.2096 9.39162C86.3778 9.39162 85.7617 9.65659 85.2996 10.1865C84.8067 10.7459 84.5603 11.4819 84.5603 12.4535ZM99.4702 9.59771H96.1124V16.958H93.8328V9.59771H92.2309V7.83125H93.8328V6.56529C93.8328 5.62318 94.1716 4.82827 94.8186 4.21001C95.4655 3.59175 96.2972 3.29734 97.3138 3.29734C97.5911 3.29734 97.8375 3.32678 98.0532 3.32678C98.2688 3.32678 98.4537 3.38567 98.6077 3.44455V5.29933C98.5461 5.26989 98.392 5.21101 98.2072 5.15212C98.0224 5.09324 97.8067 5.0638 97.5603 5.0638C97.0982 5.0638 96.7285 5.21101 96.4821 5.47597C96.2356 5.74094 96.1124 6.18256 96.1124 6.71249V7.80181H99.4702V5.74094L101.719 5.09324V7.80181H103.999V9.56827H101.719V13.8372C101.719 14.3966 101.842 14.7793 102.027 15.0148C102.243 15.2504 102.582 15.3681 103.044 15.3681C103.167 15.3681 103.321 15.3387 103.506 15.2798C103.691 15.2209 103.845 15.1621 103.968 15.0737V16.8402C103.814 16.9285 103.598 16.9874 103.259 17.0463C102.92 17.1052 102.612 17.1346 102.274 17.1346C101.319 17.1346 100.61 16.8991 100.148 16.428C99.6859 15.957 99.4394 15.2209 99.4394 14.2494L99.4702 9.59771Z" fill="#CBD5E0"/>
<path d="M10.5356 0H0V10.0688H10.5356V0Z" fill="#CBD5E0"/>
<path d="M22.1806 0H11.645V10.0688H22.1806V0Z" fill="#CBD5E0"/>
<path d="M10.5356 11.1287H0V21.1975H10.5356V11.1287Z" fill="#CBD5E0"/>
<path d="M22.1806 11.1287H11.645V21.1975H22.1806V11.1287Z" fill="#CBD5E0"/>
</g>
<defs>
<clipPath id="clip0_1701_2041">
<rect width="103.577" height="21.1113" fill="white" transform="scale(1.00408)"/>
</clipPath>
</defs>
</svg>
