<svg width="20" height="20" viewBox="0 0 20 20" fill="none" xmlns="http://www.w3.org/2000/svg">
<path d="M3.54167 0H16.4583C18.4167 0 20 1.58333 20 3.54167V15.9583C20 17.9167 18.4167 19.5 16.4583 19.5H3.54167C1.58333 19.5 0 17.9167 0 15.9583V3.54167C0 1.58333 1.58333 0 3.54167 0Z" fill="#470137"/>
<path d="M10.5164 5.125L8.01636 9.25L10.683 13.625C10.6997 13.6583 10.708 13.6917 10.6997 13.725C10.6914 13.7583 10.658 13.7333 10.608 13.7417H8.69969C8.56636 13.7417 8.47469 13.7333 8.41636 13.65C8.24136 13.3 8.05802 12.9583 7.88302 12.6083C7.70802 12.2667 7.51636 11.9167 7.31636 11.5583C7.11636 11.2 6.91636 10.8417 6.71636 10.475H6.69969C6.52469 10.8333 6.33302 11.1917 6.14136 11.55C5.94969 11.9083 5.75802 12.2667 5.57469 12.6167C5.38302 12.9667 5.19136 13.325 4.99969 13.6667C4.96636 13.75 4.89969 13.7583 4.80802 13.7583H2.97469C2.94136 13.7583 2.91636 13.775 2.91636 13.7333C2.90802 13.7 2.91636 13.6667 2.93302 13.6417L5.52469 9.39167L2.99969 5.11667C2.97469 5.08333 2.96636 5.05 2.98302 5.03333C2.99969 5.00833 3.03302 5 3.06636 5H4.95802C4.99969 5 5.04136 5.00833 5.07469 5.01667C5.10802 5.03333 5.13302 5.05833 5.15802 5.09167C5.31636 5.45 5.49969 5.80833 5.69136 6.16667C5.89136 6.525 6.08302 6.875 6.29136 7.225C6.49136 7.575 6.67469 7.925 6.84969 8.28333H6.86636C7.04136 7.91667 7.22469 7.55833 7.40802 7.20833C7.59136 6.85833 7.78302 6.50833 7.97469 6.15833C8.16636 5.80833 8.34969 5.45 8.53302 5.10833C8.54136 5.075 8.55802 5.04167 8.58302 5.025C8.61636 5.00833 8.64969 5 8.69136 5.00833H10.4497C10.4914 5 10.533 5.025 10.5414 5.06667C10.5497 5.075 10.533 5.10833 10.5164 5.125Z" fill="#FF61F6"/>
<path d="M14.3661 13.9166C13.7494 13.925 13.1327 13.8 12.5744 13.5416C12.0494 13.3 11.6161 12.9 11.3161 12.4083C11.0077 11.9 10.8577 11.2666 10.8577 10.5083C10.8494 9.89164 11.0077 9.28331 11.3161 8.74998C11.6327 8.20831 12.0911 7.75831 12.6411 7.45831C13.2244 7.13331 13.9244 6.97498 14.7494 6.97498C14.7911 6.97498 14.8494 6.97498 14.9244 6.98331C14.9994 6.99164 15.0827 6.99164 15.1827 6.99998V4.36664C15.1827 4.30831 15.2077 4.27498 15.2661 4.27498H16.9577C16.9994 4.26664 17.0327 4.29998 17.0411 4.33331C17.0411 4.34164 17.0411 4.34998 17.0411 4.34998V12.2833C17.0411 12.4333 17.0494 12.6 17.0577 12.7833C17.0744 12.9583 17.0827 13.125 17.0911 13.2666C17.0911 13.325 17.0661 13.375 17.0077 13.4C16.5744 13.5833 16.1161 13.7166 15.6494 13.8C15.2244 13.875 14.7994 13.9166 14.3661 13.9166ZM15.1827 12.25V8.58331C15.1077 8.56664 15.0327 8.54998 14.9577 8.54164C14.8661 8.53331 14.7744 8.52498 14.6827 8.52498C14.3577 8.52498 14.0327 8.59164 13.7411 8.74164C13.4577 8.88331 13.2161 9.09164 13.0327 9.35831C12.8494 9.62498 12.7577 9.98331 12.7577 10.4166C12.7494 10.7083 12.7994 11 12.8994 11.275C12.9827 11.5 13.1077 11.7 13.2744 11.8666C13.4327 12.0166 13.6244 12.1333 13.8411 12.2C14.0661 12.275 14.2994 12.3083 14.5327 12.3083C14.6577 12.3083 14.7744 12.3 14.8827 12.2916C14.9911 12.3 15.0827 12.2833 15.1827 12.25Z" fill="#FF61F6"/>
</svg>
