<svg width="38" height="40" viewBox="0 0 38 40" fill="none" xmlns="http://www.w3.org/2000/svg">
<path d="M24.9423 24.9079L22.1509 22.1164C22.823 21.2217 23.1858 20.1327 23.1845 19.0138C23.1845 16.1556 20.8592 13.8302 18.001 13.8302C15.1428 13.8302 12.8174 16.1556 12.8174 19.0138C12.8174 21.872 15.1428 24.1973 18.001 24.1973C19.12 24.1985 20.209 23.8357 21.1036 23.1637L23.8951 25.9551C24.0364 26.0814 24.2207 26.1489 24.4101 26.1436C24.5996 26.1383 24.7798 26.0606 24.9138 25.9266C25.0478 25.7926 25.1255 25.6124 25.1308 25.4229C25.1361 25.2335 25.0687 25.0492 24.9423 24.9079ZM14.2985 19.0138C14.2985 18.2815 14.5156 17.5656 14.9224 16.9568C15.3293 16.3479 15.9075 15.8733 16.5841 15.5931C17.2606 15.3128 18.0051 15.2395 18.7233 15.3824C19.4415 15.5252 20.1013 15.8779 20.6191 16.3957C21.1369 16.9135 21.4895 17.5732 21.6324 18.2914C21.7752 19.0097 21.7019 19.7541 21.4217 20.4307C21.1414 21.1072 20.6669 21.6855 20.058 22.0923C19.4491 22.4991 18.7333 22.7163 18.001 22.7163C17.0194 22.7151 16.0783 22.3247 15.3842 21.6306C14.6901 20.9364 14.2996 19.9954 14.2985 19.0138Z" fill="#2D3748"/>
</svg>
