<svg width="19" height="19" viewBox="0 0 19 19" fill="none" xmlns="http://www.w3.org/2000/svg">
<path d="M16.3623 5.05708C16.3848 5.04401 16.4033 5.02529 16.4163 5.0028C16.4292 4.9803 16.436 4.95481 16.436 4.92887C16.436 4.90293 16.4292 4.87744 16.4163 4.85494C16.4033 4.83245 16.3848 4.81373 16.3623 4.80066L10.6943 1.50757C10.3316 1.29735 9.91983 1.18665 9.50064 1.18665C9.08144 1.18665 8.66969 1.29735 8.30701 1.50757L2.64004 4.80066C2.61764 4.81373 2.59905 4.83245 2.58613 4.85494C2.57321 4.87744 2.56641 4.90293 2.56641 4.92887C2.56641 4.95481 2.57321 4.9803 2.58613 5.0028C2.59905 5.02529 2.61764 5.04401 2.64004 5.05708L9.4266 9.04931C9.44943 9.06275 9.47544 9.06985 9.50194 9.06985C9.52843 9.06985 9.55444 9.06275 9.57727 9.04931L16.3623 5.05708Z" fill="white"/>
<path d="M2.00391 6.0664C1.98127 6.05333 1.95559 6.04647 1.92945 6.04651C1.90331 6.04655 1.87765 6.05349 1.85505 6.06664C1.83246 6.07978 1.81374 6.09865 1.80078 6.12135C1.78782 6.14405 1.78108 6.16977 1.78125 6.19591V12.6489C1.78181 12.9598 1.86377 13.2652 2.01898 13.5347C2.17419 13.8042 2.39724 14.0283 2.66594 14.1848L8.6836 17.793C8.70615 17.806 8.73173 17.8128 8.75778 17.8128C8.78382 17.8128 8.80941 17.806 8.83197 17.793C8.85453 17.78 8.87327 17.7613 8.88631 17.7387C8.89935 17.7162 8.90623 17.6906 8.90625 17.6646V10.1777C8.90623 10.1517 8.89935 10.1261 8.88633 10.1036C8.8733 10.0811 8.85458 10.0624 8.83203 10.0493L2.00391 6.0664Z" fill="white"/>
<path d="M10.0938 10.2038V17.6627C10.0938 17.6888 10.1007 17.7144 10.1137 17.7369C10.1267 17.7595 10.1455 17.7782 10.168 17.7912C10.1906 17.8042 10.2162 17.811 10.2422 17.811C10.2683 17.811 10.2939 17.8042 10.3164 17.7911L16.3337 14.183C16.6022 14.0267 16.8251 13.8029 16.9804 13.5337C17.1357 13.2646 17.2178 12.9596 17.2187 12.6489V6.19595C17.2187 6.16994 17.2117 6.14441 17.1987 6.12191C17.1856 6.09942 17.1669 6.08076 17.1443 6.06779C17.1218 6.05482 17.0962 6.04801 17.0702 6.04803C17.0442 6.04806 17.0186 6.05492 16.9961 6.06792L10.168 10.0757C10.1455 10.0887 10.1268 10.1074 10.1138 10.1298C10.1007 10.1523 10.0938 10.1778 10.0938 10.2038Z" fill="white"/>
</svg>
