<svg width="16" height="16" viewBox="0 0 16 16" fill="none" xmlns="http://www.w3.org/2000/svg">
<path d="M13.7528 10.6656C13.7009 10.6031 13.6499 10.5406 13.5999 10.4803C12.9124 9.64869 12.4965 9.14682 12.4965 6.79276C12.4965 5.57401 12.2049 4.57401 11.6303 3.82401C11.2065 3.26995 10.6337 2.84963 9.87869 2.53901C9.86897 2.5336 9.8603 2.52651 9.85307 2.51807C9.5815 1.6087 8.83838 0.999634 8.00025 0.999634C7.16213 0.999634 6.41932 1.6087 6.14775 2.51713C6.14051 2.52527 6.13195 2.53213 6.12244 2.53745C4.36057 3.26276 3.50432 4.65432 3.50432 6.79182C3.50432 9.14682 3.08901 9.64869 2.40088 10.4793C2.35088 10.5396 2.29994 10.6009 2.24807 10.6646C2.11407 10.8262 2.02917 11.0228 2.00342 11.2312C1.97766 11.4395 2.01214 11.6509 2.10276 11.8403C2.29557 12.2465 2.70651 12.4987 3.17557 12.4987H12.8284C13.2953 12.4987 13.7034 12.2468 13.8968 11.8424C13.9878 11.653 14.0226 11.4415 13.9971 11.2329C13.9716 11.0243 13.8868 10.8274 13.7528 10.6656Z" fill="#4FD1C5"/>
<path d="M7.99962 14.9999C8.45119 14.9996 8.89425 14.877 9.28179 14.6452C9.66934 14.4134 9.98693 14.0811 10.2009 13.6834C10.2109 13.6643 10.2159 13.643 10.2153 13.6214C10.2147 13.5999 10.2085 13.5788 10.1974 13.5604C10.1863 13.5419 10.1706 13.5267 10.1518 13.5161C10.133 13.5055 10.1118 13.4999 10.0902 13.4999H5.90962C5.88803 13.4999 5.8668 13.5054 5.84797 13.5159C5.82915 13.5265 5.81339 13.5418 5.80222 13.5603C5.79105 13.5787 5.78485 13.5998 5.78423 13.6213C5.78361 13.6429 5.78859 13.6643 5.79868 13.6834C6.0126 14.081 6.33013 14.4133 6.71762 14.6451C7.10511 14.8769 7.5481 14.9995 7.99962 14.9999Z" fill="#4FD1C5"/>
</svg>
