<svg width="114" height="39" viewBox="0 0 114 39" fill="none" xmlns="http://www.w3.org/2000/svg">
<g clip-path="url(#clip0_1701_2031)">
<path d="M48.5112 19.714C48.5112 25.0499 44.3242 28.9818 39.1859 28.9818C34.0475 28.9818 29.8605 25.0499 29.8605 19.714C29.8605 14.3405 34.0475 10.4462 39.1859 10.4462C44.3242 10.4462 48.5112 14.3405 48.5112 19.714ZM44.429 19.714C44.429 16.3796 42.0023 14.0981 39.1859 14.0981C36.3694 14.0981 33.9427 16.3796 33.9427 19.714C33.9427 23.015 36.3694 25.3298 39.1859 25.3298C42.0023 25.3298 44.429 23.0108 44.429 19.714Z" fill="#CBD5E0"/>
<path d="M68.6315 19.714C68.6315 25.0499 64.4445 28.9818 59.3061 28.9818C54.1677 28.9818 49.9808 25.0499 49.9808 19.714C49.9808 14.3447 54.1677 10.4462 59.3061 10.4462C64.4445 10.4462 68.6315 14.3405 68.6315 19.714ZM64.5493 19.714C64.5493 16.3796 62.1226 14.0981 59.3061 14.0981C56.4897 14.0981 54.063 16.3796 54.063 19.714C54.063 23.015 56.4897 25.3298 59.3061 25.3298C62.1226 25.3298 64.5493 23.0108 64.5493 19.714Z" fill="#CBD5E0"/>
<path d="M87.9101 11.0061V27.6447C87.9101 34.489 83.8614 37.2844 79.0751 37.2844C74.5696 37.2844 71.8579 34.2801 70.8353 31.8231L74.3894 30.3481C75.0223 31.8566 76.573 33.6366 79.0709 33.6366C82.1347 33.6366 84.0333 31.7521 84.0333 28.2046V26.8717H83.8908C82.9771 27.9957 81.2168 28.9776 78.9955 28.9776C74.3475 28.9776 70.0892 24.9412 70.0892 19.7474C70.0892 14.516 74.3475 10.4462 78.9955 10.4462C81.2126 10.4462 82.9729 11.4281 83.8908 12.5187H84.0333V11.0103H87.9101V11.0061ZM84.3224 19.7474C84.3224 16.484 82.1389 14.0981 79.3601 14.0981C76.5436 14.0981 74.184 16.484 74.184 19.7474C74.184 22.9774 76.5436 25.3298 79.3601 25.3298C82.1389 25.3298 84.3224 22.9774 84.3224 19.7474Z" fill="#CBD5E0"/>
<path d="M94.301 1.25359V28.4135H90.3194V1.25359H94.301Z" fill="#CBD5E0"/>
<path d="M109.815 22.7643L112.984 24.8702C111.961 26.3786 109.497 28.9776 105.238 28.9776C99.9575 28.9776 96.0136 24.9078 96.0136 19.7098C96.0136 14.1984 99.991 10.442 104.782 10.442C109.606 10.442 111.965 14.2695 112.736 16.3378L113.16 17.3908L100.733 22.5219C101.684 24.3813 103.164 25.3298 105.238 25.3298C107.317 25.3298 108.759 24.3103 109.815 22.7643ZM100.062 19.4299L108.369 15.991C107.912 14.8336 106.538 14.0271 104.92 14.0271C102.845 14.0271 99.9575 15.8531 100.062 19.4299Z" fill="#CBD5E0"/>
<path d="M14.7928 17.3037V13.3717H28.083C28.2129 14.057 28.28 14.8676 28.28 15.7451C28.28 18.6951 27.4711 22.3429 24.8642 24.9419C22.3285 27.5743 19.0887 28.9783 14.797 28.9783C6.84215 28.9783 0.15305 22.5184 0.15305 14.5877C0.15305 6.65696 6.84215 0.197077 14.797 0.197077C19.1977 0.197077 22.3327 1.9186 24.6881 4.16243L21.9052 6.93692C20.2162 5.35747 17.9278 4.129 14.7928 4.129C8.98383 4.129 4.44061 8.79633 4.44061 14.5877C4.44061 20.379 8.98383 25.0463 14.7928 25.0463C18.5606 25.0463 20.7065 23.5379 22.0812 22.1674C23.1961 21.0559 23.9295 19.4681 24.2187 17.2995L14.7928 17.3037Z" fill="#CBD5E0"/>
</g>
<defs>
<clipPath id="clip0_1701_2031">
<rect width="113.473" height="38.2643" fill="white" transform="scale(1.00464)"/>
</clipPath>
</defs>
</svg>
