<svg width="13" height="13" viewBox="0 0 13 13" fill="none" xmlns="http://www.w3.org/2000/svg">
<path d="M11.9232 3.06059C11.8939 3.0037 11.8516 2.95452 11.7998 2.91706C11.7479 2.87959 11.6879 2.85491 11.6247 2.84501C11.5615 2.83511 11.4969 2.84028 11.436 2.86009C11.3752 2.87991 11.3199 2.91381 11.2747 2.95903L9.71468 4.52005C9.6381 4.59552 9.5349 4.63782 9.42739 4.63782C9.31987 4.63782 9.21667 4.59552 9.14009 4.52005L8.46572 3.84466C8.42798 3.80693 8.39805 3.76214 8.37763 3.71285C8.35721 3.66355 8.3467 3.61072 8.3467 3.55736C8.3467 3.504 8.35721 3.45117 8.37763 3.40188C8.39805 3.35258 8.42798 3.30779 8.46572 3.27007L10.0191 1.71641C10.0657 1.66985 10.1002 1.61267 10.1198 1.54979C10.1394 1.48691 10.1433 1.42022 10.1314 1.35546C10.1194 1.2907 10.0919 1.22981 10.0512 1.17804C10.0105 1.12628 9.95786 1.08518 9.89775 1.05829C8.72445 0.53372 7.25992 0.807431 6.33646 1.72403C5.55189 2.50302 5.31804 3.72024 5.69535 5.06366C5.71569 5.1353 5.71581 5.21117 5.69569 5.28288C5.67556 5.35458 5.63599 5.41931 5.58134 5.46991L1.35431 9.33055C1.18964 9.47841 1.05682 9.65826 0.963939 9.85913C0.871063 10.06 0.820083 10.2777 0.814109 10.4989C0.808136 10.7202 0.847294 10.9403 0.929195 11.1459C1.0111 11.3515 1.13402 11.5382 1.29048 11.6948C1.44693 11.8513 1.63363 11.9743 1.83919 12.0563C2.04475 12.1383 2.26486 12.1775 2.48609 12.1716C2.70732 12.1658 2.92504 12.1149 3.12595 12.0221C3.32687 11.9293 3.50678 11.7966 3.6547 11.632L7.55673 7.39553C7.6066 7.34159 7.67024 7.30228 7.7408 7.28183C7.81136 7.26139 7.88616 7.26058 7.95714 7.2795C8.33961 7.3843 8.73414 7.43867 9.1307 7.44124C9.97874 7.44124 10.7229 7.16676 11.2597 6.63788C12.2537 5.65856 12.4053 3.99751 11.9232 3.06059ZM2.52711 11.3539C2.35988 11.3722 2.19112 11.3381 2.0441 11.2563C1.89708 11.1746 1.77906 11.0492 1.70633 10.8976C1.63359 10.7459 1.60972 10.5754 1.63802 10.4095C1.66632 10.2437 1.74539 10.0908 1.86432 9.97181C1.98324 9.85284 2.13616 9.77372 2.30197 9.74536C2.46778 9.717 2.6383 9.74081 2.79001 9.81349C2.94171 9.88617 3.06712 10.0041 3.14891 10.1511C3.23071 10.2981 3.26487 10.4669 3.24668 10.6341C3.22666 10.8181 3.14442 10.9898 3.01357 11.1207C2.88272 11.2515 2.7111 11.3338 2.52711 11.3539Z" fill="white"/>
</svg>
