<svg width="13" height="13" viewBox="0 0 13 13" fill="none" xmlns="http://www.w3.org/2000/svg">
<path d="M2.42506 2.6394H10.5501C10.645 2.63935 10.7398 2.64538 10.8339 2.65743C10.802 2.43342 10.7251 2.2182 10.6077 2.02474C10.4904 1.83128 10.3351 1.66358 10.1512 1.53176C9.9673 1.39994 9.75861 1.30672 9.53771 1.25774C9.31681 1.20875 9.08828 1.205 8.8659 1.24672L2.18385 2.38752H2.17623C1.7568 2.46773 1.3838 2.70504 1.13344 3.05098C1.51064 2.78268 1.96217 2.6388 2.42506 2.6394Z" fill="white"/>
<path d="M10.5503 3.24987H2.42531C1.99448 3.25034 1.58143 3.4217 1.27678 3.72634C0.972139 4.03099 0.800783 4.44404 0.800313 4.87487V9.74987C0.800783 10.1807 0.972139 10.5938 1.27678 10.8984C1.58143 11.203 1.99448 11.3744 2.42531 11.3749H10.5503C10.9811 11.3744 11.3942 11.203 11.6988 10.8984C12.0035 10.5938 12.1748 10.1807 12.1753 9.74987V4.87487C12.1748 4.44404 12.0035 4.03099 11.6988 3.72634C11.3942 3.4217 10.9811 3.25034 10.5503 3.24987ZM9.34426 8.12487C9.18356 8.12487 9.02647 8.07722 8.89285 7.98794C8.75924 7.89866 8.6551 7.77177 8.5936 7.6233C8.53211 7.47484 8.51602 7.31147 8.54737 7.15386C8.57872 6.99625 8.6561 6.85148 8.76973 6.73785C8.88336 6.62422 9.02814 6.54683 9.18574 6.51548C9.34335 6.48413 9.50672 6.50022 9.65519 6.56172C9.80365 6.62322 9.93055 6.72736 10.0198 6.86097C10.1091 6.99459 10.1568 7.15167 10.1568 7.31237C10.1568 7.52786 10.0712 7.73452 9.91878 7.8869C9.76641 8.03927 9.55974 8.12487 9.34426 8.12487Z" fill="white"/>
<path d="M0.8125 6.58747V4.0611C0.8125 3.51089 1.11719 2.58845 2.17471 2.38862C3.07227 2.22028 3.96094 2.22028 3.96094 2.22028C3.96094 2.22028 4.54492 2.62653 4.0625 2.62653C3.58008 2.62653 3.59277 3.2486 4.0625 3.2486C4.53223 3.2486 4.0625 3.84528 4.0625 3.84528L2.1709 5.99079L0.8125 6.58747Z" fill="white"/>
</svg>
