<svg width="14" height="14" viewBox="0 0 14 14" fill="none" xmlns="http://www.w3.org/2000/svg">
<g clip-path="url(#clip0_1701_5773)">
<path d="M10.7733 13.1247C10.6812 13.125 10.5913 13.0963 10.5165 13.0427L6.99983 10.4931L3.48315 13.0427C3.40801 13.0971 3.3175 13.1263 3.22469 13.126C3.13188 13.1257 3.04157 13.0958 2.96684 13.0408C2.89211 12.9857 2.83681 12.9084 2.80895 12.8198C2.78109 12.7313 2.78211 12.6362 2.81186 12.5483L4.18342 8.48582L0.628733 6.04812C0.551736 5.99538 0.493623 5.91939 0.462885 5.83127C0.432148 5.74315 0.430395 5.64751 0.457885 5.55832C0.485375 5.46913 0.540666 5.39107 0.615679 5.33554C0.690693 5.28001 0.781498 5.24993 0.874827 5.24968H5.26022L6.58365 1.17683C6.61216 1.0889 6.66779 1.01226 6.74256 0.957903C6.81733 0.903546 6.90739 0.874268 6.99983 0.874268C7.09226 0.874268 7.18233 0.903546 7.25709 0.957903C7.33186 1.01226 7.38749 1.0889 7.416 1.17683L8.73943 5.25105H13.1248C13.2183 5.25101 13.3093 5.28088 13.3845 5.3363C13.4597 5.39172 13.5153 5.46978 13.5429 5.55903C13.5706 5.64829 13.5689 5.74406 13.5382 5.83232C13.5075 5.92057 13.4494 5.99668 13.3723 6.04949L9.81623 8.48582L11.187 12.5472C11.2092 12.6129 11.2154 12.683 11.2052 12.7517C11.195 12.8203 11.1686 12.8855 11.1281 12.942C11.0877 12.9984 11.0345 13.0444 10.9727 13.0762C10.911 13.1079 10.8427 13.1246 10.7733 13.1247Z" fill="#2D3748"/>
</g>
<defs>
<clipPath id="clip0_1701_5773">
<rect width="14" height="14" fill="white"/>
</clipPath>
</defs>
</svg>
