<svg width="25" height="25" viewBox="0 0 25 25" fill="none" xmlns="http://www.w3.org/2000/svg">
<path d="M23.3222 1.86919C23.3133 1.826 23.2923 1.78625 23.2616 1.7546C23.2309 1.72295 23.1918 1.7007 23.1489 1.69047C20.289 0.991256 13.6811 3.48295 10.101 7.06157C9.46249 7.69494 8.88037 8.38276 8.36128 9.11723C7.25728 9.01957 6.15327 9.10112 5.21236 9.51127C2.55757 10.6797 1.78462 13.7286 1.56929 15.0401C1.55708 15.1119 1.56168 15.1855 1.58275 15.2552C1.60382 15.3249 1.64077 15.3888 1.69069 15.4418C1.74062 15.4948 1.80217 15.5355 1.87049 15.5607C1.93881 15.5859 2.01204 15.5949 2.08443 15.587L6.34761 15.1167C6.35065 15.4382 6.37005 15.7592 6.40571 16.0787C6.42717 16.3005 6.52564 16.5078 6.68403 16.6646L8.33491 18.3116C8.49185 18.4697 8.69908 18.5682 8.92085 18.5899C9.23851 18.6254 9.55777 18.6448 9.87739 18.648L9.40962 22.9058C9.40182 22.9782 9.41088 23.0513 9.43611 23.1196C9.46134 23.1879 9.50203 23.2494 9.55501 23.2993C9.60799 23.3492 9.67181 23.3862 9.74147 23.4073C9.81113 23.4284 9.88473 23.433 9.95649 23.4209C11.2656 23.211 14.3198 22.438 15.4814 19.7832C15.8916 18.8423 15.9755 17.7437 15.8808 16.6451C16.6171 16.1259 17.3067 15.5437 17.9418 14.9048C21.5331 11.3316 24.0107 4.87114 23.3222 1.86919ZM14.3588 10.6421C14.0309 10.3144 13.8075 9.8968 13.717 9.44211C13.6264 8.98743 13.6727 8.5161 13.8501 8.08775C14.0274 7.65939 14.3278 7.29326 14.7133 7.03566C15.0988 6.77806 15.552 6.64056 16.0156 6.64056C16.4792 6.64056 16.9324 6.77806 17.3179 7.03566C17.7033 7.29326 18.0037 7.65939 18.1811 8.08775C18.3584 8.5161 18.4047 8.98743 18.3142 9.44211C18.2236 9.8968 18.0002 10.3144 17.6723 10.6421C17.4549 10.8599 17.1966 11.0327 16.9123 11.1505C16.628 11.2684 16.3233 11.3291 16.0156 11.3291C15.7078 11.3291 15.4031 11.2684 15.1188 11.1505C14.8345 11.0327 14.5763 10.8599 14.3588 10.6421Z" fill="#1A365D"/>
<path d="M8.22278 19.5045C7.9552 19.7726 7.526 19.8771 7.0094 19.9664C5.84875 20.1642 4.82385 19.1613 5.03235 17.9879C5.11194 17.5431 5.34729 16.9196 5.49377 16.7731C5.52579 16.7417 5.5471 16.701 5.55468 16.6568C5.56226 16.6126 5.55572 16.5671 5.53599 16.5268C5.51626 16.4866 5.48434 16.4535 5.44477 16.4324C5.4052 16.4113 5.35999 16.4032 5.31555 16.4093C4.66651 16.4887 4.06269 16.783 3.60022 17.2452C2.45227 18.3942 2.34387 22.6573 2.34387 22.6573C2.34387 22.6573 6.6095 22.5489 7.75744 21.4C8.22115 20.9379 8.51578 20.3332 8.59387 19.6832C8.61194 19.4791 8.3634 19.3575 8.22278 19.5045Z" fill="#1A365D"/>
</svg>
