<svg width="15" height="15" viewBox="0 0 15 15" fill="none" xmlns="http://www.w3.org/2000/svg">
<path d="M13.7563 3.53136C13.7226 3.46571 13.6738 3.40896 13.6139 3.36574C13.5541 3.32251 13.4849 3.29403 13.412 3.2826C13.3391 3.27118 13.2645 3.27715 13.1943 3.30001C13.1241 3.32287 13.0603 3.36199 13.0081 3.41417L11.2081 5.21534C11.1197 5.30242 11.0006 5.35123 10.8766 5.35123C10.7525 5.35123 10.6334 5.30242 10.5451 5.21534L9.76696 4.43604C9.72342 4.39252 9.68889 4.34084 9.66532 4.28396C9.64176 4.22708 9.62963 4.16612 9.62963 4.10455C9.62963 4.04298 9.64176 3.98202 9.66532 3.92514C9.68889 3.86826 9.72342 3.81659 9.76696 3.77306L11.5593 1.98038C11.6131 1.92666 11.6529 1.86068 11.6755 1.78812C11.6981 1.71557 11.7027 1.63861 11.6889 1.56389C11.6751 1.48917 11.6434 1.41892 11.5964 1.35918C11.5494 1.29945 11.4887 1.25203 11.4193 1.22101C10.0655 0.615733 8.37566 0.931553 7.31013 1.98917C6.40486 2.888 6.13503 4.29249 6.57038 5.84259C6.59386 5.92525 6.59399 6.01279 6.57077 6.09553C6.54756 6.17826 6.50189 6.25296 6.43884 6.31134L1.5615 10.7659C1.37149 10.9365 1.21823 11.144 1.11107 11.3758C1.0039 11.6076 0.945078 11.8588 0.938185 12.114C0.931292 12.3693 0.976475 12.6233 1.07098 12.8605C1.16548 13.0978 1.30732 13.3132 1.48784 13.4938C1.66836 13.6745 1.88379 13.8164 2.12097 13.911C2.35816 14.0056 2.61213 14.0509 2.86739 14.0441C3.12266 14.0373 3.37387 13.9786 3.6057 13.8716C3.83753 13.7645 4.04511 13.6113 4.21579 13.4214L8.71814 8.53321C8.77568 8.47097 8.84911 8.42561 8.93052 8.40202C9.01194 8.37843 9.09824 8.37749 9.18015 8.39932C9.62146 8.52024 10.0767 8.58298 10.5342 8.58595C11.5128 8.58595 12.3715 8.26925 12.9908 7.65899C14.1378 6.52901 14.3127 4.61241 13.7563 3.53136ZM2.91472 13.1006C2.72177 13.1217 2.52704 13.0823 2.35741 12.988C2.18777 12.8937 2.05159 12.749 1.96767 12.574C1.88374 12.399 1.8562 12.2022 1.88886 12.0109C1.92151 11.8196 2.01274 11.6431 2.14996 11.5058C2.28719 11.3686 2.46363 11.2773 2.65495 11.2445C2.84627 11.2118 3.04302 11.2393 3.21807 11.3232C3.39311 11.407 3.53781 11.5431 3.63219 11.7128C3.72657 11.8824 3.76599 12.0771 3.74499 12.27C3.7219 12.4823 3.62701 12.6804 3.47602 12.8314C3.32504 12.9825 3.12702 13.0774 2.91472 13.1006Z" fill="#344767"/>
</svg>
