<svg width="20" height="20" viewBox="0 0 20 20" fill="none" xmlns="http://www.w3.org/2000/svg">
<g clip-path="url(#clip0_1701_2905)">
<path d="M13.3337 9.99992C13.3337 10.9166 14.0837 11.6666 15.0003 11.6666C15.917 11.6666 16.667 10.9166 16.667 9.99992C16.667 9.08325 15.917 8.33325 15.0003 8.33325C14.0837 8.33325 13.3337 9.08325 13.3337 9.99992ZM11.667 9.99992C11.667 9.08325 10.917 8.33325 10.0003 8.33325C9.08366 8.33325 8.33366 9.08325 8.33366 9.99992C8.33366 10.9166 9.08366 11.6666 10.0003 11.6666C10.917 11.6666 11.667 10.9166 11.667 9.99992ZM6.66699 9.99992C6.66699 9.08325 5.91699 8.33325 5.00033 8.33325C4.08366 8.33325 3.33366 9.08325 3.33366 9.99992C3.33366 10.9166 4.08366 11.6666 5.00033 11.6666C5.91699 11.6666 6.66699 10.9166 6.66699 9.99992Z" fill="#A0AEC0"/>
</g>
<defs>
<clipPath id="clip0_1701_2905">
<rect width="20" height="20" fill="white" transform="translate(20) rotate(90)"/>
</clipPath>
</defs>
</svg>
