<svg width="24" height="16" viewBox="0 0 24 16" fill="none" xmlns="http://www.w3.org/2000/svg">
<path d="M12.6842 1.41235L8.51354 8.25646L12.9622 15.5154C12.99 15.5707 13.0039 15.626 12.99 15.6813C12.9761 15.7366 12.9205 15.6951 12.8371 15.7089H9.65351C9.43108 15.7089 9.27815 15.6951 9.18084 15.5568C8.88889 14.9761 8.58305 14.4092 8.2911 13.8285C7.99916 13.2617 7.67941 12.6809 7.34576 12.0864C7.01211 11.4919 6.67846 10.8973 6.34481 10.289H6.31701C6.02506 10.8835 5.70531 11.478 5.38557 12.0726C5.06582 12.6671 4.74607 13.2616 4.44022 13.8424C4.12048 14.4231 3.80073 15.0176 3.48098 15.5845C3.42537 15.7228 3.31415 15.7366 3.16123 15.7366H0.102769C0.0471602 15.7366 0.00545384 15.7642 0.00545384 15.6951C-0.00844826 15.6398 0.00545395 15.5845 0.0332581 15.543L4.35681 8.49151L0.144475 1.39853C0.102769 1.34322 0.0888663 1.28791 0.116671 1.26026C0.144475 1.21878 0.200083 1.20496 0.255692 1.20496H3.41147C3.48098 1.20496 3.55049 1.21878 3.6061 1.23261C3.66171 1.26026 3.70341 1.30174 3.74512 1.35705C4.00926 1.95159 4.3151 2.54612 4.63485 3.14066C4.9685 3.7352 5.28825 4.31591 5.6358 4.89663C5.96945 5.47734 6.2753 6.05805 6.56724 6.65259H6.59505C6.88699 6.04423 7.19284 5.44969 7.49869 4.86897C7.80453 4.28826 8.12428 3.70755 8.44403 3.12684C8.76378 2.54612 9.06962 1.95159 9.37547 1.3847C9.38937 1.32939 9.41717 1.27409 9.45888 1.24643C9.51449 1.21878 9.5701 1.20496 9.63961 1.21878H12.573C12.6425 1.20496 12.712 1.24643 12.7259 1.31557C12.7398 1.32939 12.712 1.3847 12.6842 1.41235Z" fill="#FF61F6"/>
<path d="M19.1067 15.9994C18.0779 16.0132 17.0492 15.8058 16.1178 15.3772C15.2419 14.9762 14.519 14.3126 14.0185 13.4968C13.5042 12.6534 13.2539 11.6026 13.2539 10.3444C13.24 9.3212 13.5042 8.31187 14.0185 7.42697C14.5468 6.52825 15.3114 5.78162 16.229 5.28387C17.2021 4.74463 18.3699 4.48193 19.7462 4.48193C19.8157 4.48193 19.913 4.48193 20.0381 4.49576C20.1633 4.50958 20.3023 4.50958 20.4691 4.52341V0.15424C20.4691 0.0574551 20.5108 0.00214887 20.6081 0.00214887H23.4303C23.4998 -0.0116776 23.5554 0.0436284 23.5693 0.0989344C23.5693 0.112761 23.5693 0.126587 23.5693 0.126587V13.2894C23.5693 13.5383 23.5832 13.8148 23.5971 14.119C23.6249 14.4093 23.6388 14.6859 23.6527 14.9209C23.6527 15.0177 23.611 15.1007 23.5137 15.1421C22.7908 15.4463 22.0261 15.6676 21.2476 15.8058C20.5386 15.9303 19.8296 15.9994 19.1067 15.9994ZM20.4691 13.2341V7.15044C20.344 7.12279 20.2189 7.09514 20.0938 7.08131C19.9408 7.06748 19.7879 7.05366 19.635 7.05366C19.0928 7.05366 18.5506 7.16427 18.064 7.41314C17.5914 7.64819 17.1882 7.99386 16.8824 8.4363C16.5765 8.87875 16.4236 9.47329 16.4236 10.1923C16.4097 10.6762 16.4931 11.1601 16.6599 11.6164C16.799 11.9897 17.0075 12.3215 17.2855 12.5981C17.5497 12.847 17.8694 13.0405 18.2309 13.1511C18.6062 13.2756 18.9955 13.3309 19.3847 13.3309C19.5933 13.3309 19.7879 13.3171 19.9686 13.3032C20.1494 13.3171 20.3023 13.2894 20.4691 13.2341Z" fill="#FF61F6"/>
</svg>
