<svg width="20" height="20" viewBox="0 0 20 20" fill="none" xmlns="http://www.w3.org/2000/svg">
<g clip-path="url(#clip0_1701_5064)">
<path d="M13.3334 9.99992C13.3334 10.9166 14.0834 11.6666 15.0001 11.6666C15.9167 11.6666 16.6667 10.9166 16.6667 9.99992C16.6667 9.08325 15.9167 8.33325 15.0001 8.33325C14.0834 8.33325 13.3334 9.08325 13.3334 9.99992ZM11.6667 9.99992C11.6667 9.08325 10.9167 8.33325 10.0001 8.33325C9.08342 8.33325 8.33342 9.08325 8.33342 9.99992C8.33342 10.9166 9.08342 11.6666 10.0001 11.6666C10.9167 11.6666 11.6667 10.9166 11.6667 9.99992ZM6.66675 9.99992C6.66675 9.08325 5.91675 8.33325 5.00008 8.33325C4.08342 8.33325 3.33342 9.08325 3.33342 9.99992C3.33342 10.9166 4.08342 11.6666 5.00008 11.6666C5.91675 11.6666 6.66675 10.9166 6.66675 9.99992Z" fill="white"/>
</g>
<defs>
<clipPath id="clip0_1701_5064">
<rect width="20" height="20" fill="white" transform="translate(20) rotate(90)"/>
</clipPath>
</defs>
</svg>
