<svg width="23" height="20" viewBox="0 0 23 20" fill="none" xmlns="http://www.w3.org/2000/svg">
<path d="M5.14186 4.07711C6.26774 4.07711 7.21091 3.19467 7.21091 2.03809C7.21091 0.882314 6.26774 0 5.14186 0C4.01598 0 3.07308 0.882314 3.07308 2.03809C3.07308 3.19453 4.01598 4.07711 5.14186 4.07711ZM0.851884 14.9946C0.730299 15.5119 0.669309 16.0704 0.669309 16.5261C0.669309 18.3215 1.64291 19.5134 3.71196 19.5134C5.4279 19.5134 6.81904 18.4945 7.82068 16.849L7.20906 19.3036H10.6165L12.5639 11.4927C13.0508 9.51507 13.994 8.48855 15.4241 8.48855C16.5499 8.48855 17.2496 9.18868 17.2496 10.3445C17.2496 10.6793 17.2192 11.0441 17.0975 11.4398L16.0933 15.03C15.9412 15.5473 15.8806 16.0649 15.8806 16.5514C15.8806 18.2558 16.8843 19.5025 18.9838 19.5025C20.779 19.5025 22.2089 18.3468 23.0001 15.5779L21.6614 15.0611C20.992 16.9161 20.4138 17.2515 19.9574 17.2515C19.501 17.2515 19.2575 16.9475 19.2575 16.3393C19.2575 16.0654 19.3187 15.7615 19.4097 15.3956L20.3835 11.8978C20.6268 11.0765 20.7183 10.3482 20.7183 9.67899C20.7183 7.06235 19.136 5.69674 17.2192 5.69674C15.4241 5.69674 13.5984 7.31597 12.6858 9.02013L13.3549 5.96134H8.15236L7.42206 8.65551H9.85626L8.35729 14.6567C7.18022 17.2733 5.01803 17.3158 4.74668 17.2551C4.30109 17.1545 4.01612 16.9853 4.01612 16.4064C4.01612 16.0723 4.07697 15.5924 4.22912 15.0139L6.5113 5.96134H0.730299L0 8.65551H2.4035L0.852016 14.9946" fill="white"/>
</svg>
