<svg width="19" height="23" viewBox="0 0 19 23" fill="none" xmlns="http://www.w3.org/2000/svg">
<path d="M16.1783 1.67814C15.1412 0.503302 13.2642 0 10.8631 0H3.89471C3.40392 0 2.98682 0.354536 2.90896 0.834201L0.00737213 19.0907C-0.0496316 19.4508 0.231216 19.7761 0.598265 19.7761H4.89996L5.98026 12.9774L5.94689 13.1915C6.02336 12.7118 6.43907 12.3573 6.92986 12.3573H8.97365C12.9903 12.3573 16.1339 10.739 17.0529 6.05769C17.0807 5.91866 17.1238 5.65171 17.1238 5.65171C17.3851 3.91936 17.1224 2.74452 16.1783 1.67814Z" fill="white"/>
<path d="M18.2126 6.53877C17.2144 11.1477 14.0291 13.5864 8.97384 13.5864H7.14138L5.77329 22.2454H8.74583C9.17544 22.2454 9.5411 21.9354 9.60783 21.5141L9.64259 21.3306L10.3266 17.033L10.3711 16.7967C10.4379 16.3754 10.8035 16.0654 11.2317 16.0654H11.7754C15.2887 16.0654 18.0388 14.65 18.8424 10.5555C19.165 8.91208 19.0093 7.53425 18.2126 6.53877Z" fill="white"/>
</svg>
