<svg width="24" height="24" viewBox="0 0 24 24" fill="none" xmlns="http://www.w3.org/2000/svg">
<path d="M12 2.24963C6.6239 2.24963 2.25 6.62354 2.25 11.9996C2.25 17.3757 6.6239 21.7496 12 21.7496C17.3761 21.7496 21.75 17.3757 21.75 11.9996C21.75 6.62354 17.3761 2.24963 12 2.24963ZM17.0742 8.73197L10.7742 16.232C10.7051 16.3143 10.6191 16.3808 10.5221 16.427C10.425 16.4731 10.3192 16.4979 10.2117 16.4996H10.1991C10.0939 16.4996 9.99 16.4775 9.89398 16.4347C9.79796 16.3919 9.71202 16.3293 9.64172 16.2512L6.94172 13.2512C6.87315 13.1785 6.81981 13.0928 6.78483 12.9991C6.74985 12.9055 6.73395 12.8058 6.73805 12.7059C6.74215 12.6061 6.76617 12.508 6.8087 12.4176C6.85123 12.3271 6.91142 12.2461 6.98572 12.1792C7.06002 12.1123 7.14694 12.061 7.24136 12.0282C7.33578 11.9954 7.43581 11.9818 7.53556 11.9882C7.63531 11.9947 7.73277 12.0209 7.82222 12.0656C7.91166 12.1102 7.99128 12.1722 8.0564 12.2481L10.1794 14.6068L15.9258 7.76729C16.0547 7.61826 16.237 7.52595 16.4335 7.5103C16.6299 7.49464 16.8246 7.55691 16.9754 7.68365C17.1263 7.81038 17.2212 7.99139 17.2397 8.18756C17.2582 8.38373 17.1988 8.57929 17.0742 8.73197Z" fill="white"/>
</svg>
