<svg width="15" height="15" viewBox="0 0 15 15" fill="none" xmlns="http://www.w3.org/2000/svg">
<g clip-path="url(#clip0_1701_7392)">
<path d="M13.9933 1.12154C13.9879 1.09562 13.9753 1.07178 13.9569 1.05278C13.9384 1.03379 13.915 1.02045 13.8892 1.01431C12.1733 0.594778 8.20859 2.0898 6.06054 4.23696C5.67742 4.61699 5.32815 5.02968 5.0167 5.47036C4.35429 5.41177 3.69189 5.46069 3.12734 5.70679C1.53447 6.40786 1.0707 8.23716 0.941501 9.02407C0.934173 9.06714 0.936937 9.11133 0.949577 9.15315C0.962216 9.19497 0.984386 9.23329 1.01434 9.26509C1.0443 9.29689 1.08123 9.32131 1.12222 9.33643C1.16321 9.35154 1.20715 9.35694 1.25058 9.3522L3.80849 9.07007C3.81032 9.26292 3.82196 9.45555 3.84336 9.64721C3.85623 9.78032 3.91531 9.9047 4.01035 9.99878L5.00087 10.987C5.09503 11.0819 5.21938 11.1409 5.35244 11.154C5.54303 11.1753 5.73459 11.1869 5.92636 11.1888L5.6457 13.7435C5.64102 13.7869 5.64646 13.8308 5.66159 13.8718C5.67673 13.9128 5.70115 13.9497 5.73294 13.9796C5.76472 14.0095 5.80302 14.0317 5.84481 14.0444C5.8866 14.057 5.93076 14.0598 5.97382 14.0526C6.75927 13.9266 8.59179 13.4628 9.28876 11.87C9.53486 11.3054 9.58525 10.6462 9.52841 9.98706C9.97016 9.67558 10.3839 9.32622 10.765 8.94292C12.9198 6.79897 14.4063 2.92271 13.9933 1.12154ZM8.61523 6.3853C8.41847 6.18867 8.28445 5.9381 8.23011 5.66529C8.17578 5.39248 8.20357 5.10968 8.30998 4.85267C8.41639 4.59566 8.59663 4.37598 8.8279 4.22142C9.05918 4.06686 9.3311 3.98436 9.60927 3.98436C9.88744 3.98436 10.1594 4.06686 10.3906 4.22142C10.6219 4.37598 10.8022 4.59566 10.9086 4.85267C11.015 5.10968 11.0428 5.39248 10.9884 5.66529C10.9341 5.9381 10.8001 6.18867 10.6033 6.3853C10.4728 6.51596 10.3179 6.61962 10.1473 6.69034C9.97676 6.76106 9.79392 6.79746 9.60927 6.79746C9.42462 6.79746 9.24179 6.76106 9.07122 6.69034C8.90065 6.61962 8.7457 6.51596 8.61523 6.3853Z" fill="#344767"/>
<path d="M4.93359 11.7028C4.77305 11.8636 4.51553 11.9263 4.20557 11.9799C3.50918 12.0986 2.89424 11.4968 3.01934 10.7928C3.06709 10.5259 3.2083 10.1518 3.29619 10.0639C3.3154 10.0451 3.32819 10.0207 3.33274 9.99414C3.33728 9.96762 3.33336 9.94034 3.32152 9.91618C3.30968 9.89202 3.29053 9.8722 3.26679 9.85954C3.24305 9.84688 3.21592 9.84202 3.18926 9.84566C2.79983 9.8933 2.43754 10.0699 2.16006 10.3472C1.47129 11.0366 1.40625 13.5945 1.40625 13.5945C1.40625 13.5945 3.96562 13.5294 4.65439 12.8401C4.93261 12.5628 5.10939 12.2 5.15625 11.81C5.16709 11.6875 5.01797 11.6146 4.93359 11.7028Z" fill="#344767"/>
</g>
<defs>
<clipPath id="clip0_1701_7392">
<rect width="15" height="15" fill="white"/>
</clipPath>
</defs>
</svg>
