<svg width="17" height="17" viewBox="0 0 17 17" fill="none" xmlns="http://www.w3.org/2000/svg">
<path d="M4.21637 13.7881L4.21359 13.7866C4.0684 13.7043 3.95693 13.5289 3.95693 13.3151V3.68644C3.95693 3.47169 4.06804 3.29743 4.21359 3.21495L4.21359 3.21496L4.21764 3.21264C4.27948 3.17709 4.34974 3.15882 4.42107 3.15971C4.49239 3.16061 4.56217 3.18065 4.6231 3.21774L4.62309 3.21776L4.62797 3.22067L12.8486 8.14144C12.9076 8.1796 12.9563 8.23177 12.9904 8.29332C13.0254 8.35661 13.0438 8.42776 13.0438 8.50009C13.0438 8.57243 13.0254 8.64357 12.9904 8.70686C12.9563 8.76843 12.9076 8.82059 12.8486 8.85876L4.6266 13.7809L4.62375 13.7826C4.56078 13.8206 4.48874 13.8411 4.41518 13.8418C4.34541 13.8413 4.27694 13.8228 4.21637 13.7881Z" fill="white" stroke="white" stroke-width="1.5"/>
</svg>
