<svg width="17" height="17" viewBox="0 0 17 17" fill="none" xmlns="http://www.w3.org/2000/svg">
<path d="M12.7836 3.21136L12.7864 3.21293C12.9316 3.29521 13.0431 3.47057 13.0431 3.68443L13.0431 13.3131C13.0431 13.5278 12.932 13.7021 12.7864 13.7846L12.7864 13.7845L12.7824 13.7869C12.7205 13.8224 12.6503 13.8407 12.5789 13.8398C12.5076 13.8389 12.4378 13.8188 12.3769 13.7818L12.3769 13.7817L12.372 13.7788L4.15141 8.85806C4.09238 8.8199 4.04366 8.76773 4.0096 8.70617C3.97459 8.64289 3.95621 8.57174 3.95621 8.49941C3.95621 8.42707 3.97459 8.35593 4.0096 8.29263C4.04367 8.23107 4.0924 8.1789 4.15143 8.14074L12.3734 3.21865L12.3762 3.21692C12.4392 3.17885 12.5113 3.15841 12.5848 3.15773C12.6546 3.15823 12.7231 3.17669 12.7836 3.21136Z" fill="white" stroke="white" stroke-width="1.5"/>
</svg>
