<svg width="117" height="26" viewBox="0 0 117 26" fill="none" xmlns="http://www.w3.org/2000/svg">
<path d="M108.856 20.2634C108.856 18.615 110.194 17.2776 111.841 17.2776C113.49 17.2776 114.826 18.615 114.826 20.2634C114.826 21.9119 113.49 23.2484 111.841 23.2484C110.194 23.2484 108.856 21.9119 108.856 20.2634Z" fill="#CBD5E0"/>
<path d="M13.6311 12.3563C13.6311 10.4651 13.2657 9.06207 12.5348 8.14801C11.803 7.23481 10.6945 6.77864 9.20422 6.77864H7.6189V18.3436H8.83181C10.4871 18.3436 11.7002 17.8528 12.4726 16.8679C13.244 15.8847 13.6311 14.3806 13.6311 12.3563ZM19.2848 12.1594C19.2848 15.6048 18.3586 18.2597 16.5063 20.1233C14.654 21.9877 12.0501 22.9199 8.69361 22.9199H2.1716V2.27401H9.14887C12.3852 2.27401 14.8838 3.12154 16.6445 4.81576C18.4044 6.51083 19.2848 8.95755 19.2848 12.1594Z" fill="#CBD5E0"/>
<path d="M37.351 22.9194H42.5408V2.18709H37.351V22.9194Z" fill="#CBD5E0"/>
<path d="M49.8312 15.1862C49.8312 16.5081 50.004 17.5163 50.3488 18.2092C50.6943 18.9029 51.2731 19.2494 52.087 19.2494C52.8922 19.2494 53.4615 18.9029 53.7933 18.2092C54.125 17.5163 54.29 16.5081 54.29 15.1862C54.29 13.8713 54.1224 12.8795 53.7864 12.2099C53.4494 11.5386 52.875 11.2025 52.0603 11.2025C51.2637 11.2025 50.6943 11.5369 50.3488 12.2021C50.004 12.8682 49.8312 13.8626 49.8312 15.1862ZM59.5723 15.1862C59.5723 17.7046 58.9122 19.6693 57.5886 21.0775C56.2659 22.4866 54.4145 23.1916 52.0343 23.1916C49.7518 23.1916 47.9348 22.4711 46.5862 21.03C45.2359 19.5889 44.5611 17.6416 44.5611 15.1862C44.5611 12.6756 45.2221 10.7247 46.5457 9.33378C47.8692 7.94282 49.7249 7.24734 52.1146 7.24734C53.5912 7.24734 54.8975 7.56961 56.0293 8.21326C57.1619 8.8569 58.0362 9.77874 58.6505 10.9796C59.2656 12.1788 59.5723 13.5819 59.5723 15.1862Z" fill="#CBD5E0"/>
<path d="M61.635 22.9194H66.8256V14.9849V7.51947H61.635V22.9194Z" fill="#CBD5E0"/>
<path d="M61.635 5.65673H66.8256V2.18623H61.635V5.65673Z" fill="#CBD5E0"/>
<path d="M77.3392 18.9916C78.0399 18.9916 78.8744 18.8136 79.848 18.4602V22.335C79.1482 22.6426 78.483 22.8629 77.8506 22.9934C77.2182 23.1256 76.476 23.1912 75.6268 23.1912C73.8842 23.1912 72.628 22.7532 71.8565 21.8789C71.0884 21.0046 70.7031 19.662 70.7031 17.8503V11.5019H68.8854V7.52084H70.7031V3.58813L75.9336 2.67836V7.52084H79.2451V11.5019H75.9336V17.496C75.9336 18.4931 76.4027 18.9916 77.3392 18.9916Z" fill="#CBD5E0"/>
<path d="M89.3507 18.9916C90.0514 18.9916 90.8861 18.8136 91.8598 18.4602V22.335C91.1609 22.6426 90.4946 22.8629 89.8622 22.9934C89.229 23.1256 88.4894 23.1912 87.6384 23.1912C85.8958 23.1912 84.6397 22.7532 83.8699 21.8789C83.1001 21.0046 82.7148 19.662 82.7148 17.8503V11.5019H80.8961V7.52084H82.7148V3.52852L87.9443 2.67836V7.52084H91.2575V11.5019H87.9443V17.496C87.9443 18.4931 88.4134 18.9916 89.3507 18.9916Z" fill="#CBD5E0"/>
<path d="M98.4098 13.3101C98.4807 12.4668 98.7219 11.8491 99.1331 11.4543C99.5461 11.0603 100.056 10.8634 100.666 10.8634C101.331 10.8634 101.86 11.0845 102.252 11.5303C102.647 11.9735 102.852 12.5671 102.869 13.3101H98.4098ZM105.729 9.0629C104.496 7.85336 102.745 7.24771 100.481 7.24771C98.1006 7.24771 96.2691 7.94319 94.9852 9.33415C93.7022 10.7251 93.0602 12.7209 93.0602 15.3214C93.0602 17.8398 93.7541 19.7819 95.1381 21.1453C96.523 22.5086 98.4677 23.1911 100.972 23.1911C102.175 23.1911 103.21 23.1091 104.078 22.9458C104.94 22.7842 105.774 22.4922 106.584 22.0706L105.786 18.6001C105.198 18.8402 104.638 19.0251 104.109 19.1469C103.346 19.3241 102.508 19.413 101.595 19.413C100.595 19.413 99.8052 19.1685 99.2264 18.6795C98.6475 18.1897 98.3391 17.5141 98.3037 16.6536H107.581V14.2889C107.581 12.0141 106.964 10.2716 105.729 9.0629Z" fill="#CBD5E0"/>
<path d="M26.1726 13.3101C26.2434 12.4668 26.4845 11.8491 26.8956 11.4543C27.3078 11.0603 27.8185 10.8634 28.4293 10.8634C29.0928 10.8634 29.6215 11.0845 30.0147 11.5303C30.4094 11.9735 30.6142 12.5671 30.6324 13.3101H26.1726ZM33.4929 9.0629C32.2584 7.85336 30.5088 7.24771 28.2435 7.24771C25.8624 7.24771 24.0317 7.94319 22.7487 9.33415C21.4657 10.7251 20.823 12.7209 20.823 15.3214C20.823 17.8398 21.5159 19.7819 22.9017 21.1453C24.2858 22.5086 26.2305 23.1911 28.7351 23.1911C29.9377 23.1911 30.9727 23.1091 31.8401 22.9458C32.7023 22.7842 33.537 22.4922 34.3474 22.0706L33.5491 18.6001C32.9607 18.8402 32.4008 19.0251 31.873 19.1469C31.1075 19.3241 30.2703 19.413 29.3579 19.413C28.3584 19.413 27.568 19.1685 26.9891 18.6795C26.4094 18.1897 26.1018 17.5141 26.0664 16.6536H35.3435V14.2889C35.3435 12.0141 34.7266 10.2716 33.4929 9.0629Z" fill="#CBD5E0"/>
</svg>
