<svg width="16" height="16" viewBox="0 0 16 16" fill="none" xmlns="http://www.w3.org/2000/svg">
<path d="M1 11.7495C1 12.2136 1.18437 12.6588 1.51256 12.9869C1.84075 13.3151 2.28587 13.4995 2.75 13.4995H13.25C13.7141 13.4995 14.1592 13.3151 14.4874 12.9869C14.8156 12.6588 15 12.2136 15 11.7495V6.93701H1V11.7495ZM3.0625 9.37451C3.0625 9.12587 3.16127 8.88741 3.33709 8.7116C3.5129 8.53578 3.75136 8.43701 4 8.43701H5.5C5.74864 8.43701 5.9871 8.53578 6.16291 8.7116C6.33873 8.88741 6.4375 9.12587 6.4375 9.37451V9.99951C6.4375 10.2482 6.33873 10.4866 6.16291 10.6624C5.9871 10.8382 5.74864 10.937 5.5 10.937H4C3.75136 10.937 3.5129 10.8382 3.33709 10.6624C3.16127 10.4866 3.0625 10.2482 3.0625 9.99951V9.37451Z" fill="#F6AD55"/>
<path d="M13.25 2.49915H2.75C2.28587 2.49915 1.84075 2.68352 1.51256 3.01171C1.18437 3.3399 1 3.78502 1 4.24915V5.06164H15V4.24915C15 3.78502 14.8156 3.3399 14.4874 3.01171C14.1592 2.68352 13.7141 2.49915 13.25 2.49915Z" fill="#F6AD55"/>
</svg>
