<svg width="90" height="40" viewBox="0 0 90 40" fill="none" xmlns="http://www.w3.org/2000/svg">
<g clip-path="url(#clip0_1701_2072)">
<path d="M8.15732 6.52678C3.5287 6.52678 0.528942 9.36608 0.528942 12.9283C0.528896 16.4883 3.5287 19.327 8.15732 19.327C9.57187 19.327 11.3725 18.9142 12.4217 17.7272L12.6572 19.0681H15.2295V12.3414H8.80024V14.7161H11.5857C11.3725 15.8339 10.0442 16.5742 8.07228 16.5742C5.50103 16.5742 4.51486 14.7512 4.51486 12.9283C4.51486 11.1043 5.50103 9.28018 8.07228 9.28018C9.67931 9.28018 10.9646 9.91665 11.0933 10.967H15.079C14.7147 7.88676 11.3289 6.52678 8.15732 6.52678ZM61.5065 6.78621V9.02191H65.1492V6.78621H61.5065ZM22.0196 9.88263C18.7412 9.88263 16.0195 11.8439 16.0195 14.5789C16.0195 17.5727 18.4844 19.327 22.1064 19.327C24.5919 19.327 26.9694 18.4334 27.6342 16.3683H24.2271C23.8841 17.0215 23.0268 17.3478 22.1477 17.3478C20.6051 17.3478 19.726 16.5396 19.6622 15.3174H27.8272C27.9979 12.2901 26.0059 9.88263 22.0196 9.88263ZM34.2462 9.88263C30.796 9.88263 28.396 11.9298 28.396 14.6129C28.396 17.2959 30.796 19.327 34.2462 19.327C37.6964 19.327 40.117 17.2959 40.117 14.6129C40.117 11.9298 37.6964 9.88263 34.2462 9.88263ZM53.6047 9.88263C50.4532 9.88263 48.7186 11.8785 48.7186 14.2526C48.7186 16.7633 50.2389 18.6899 53.6047 18.6899C54.7825 18.6899 55.896 18.2097 56.5602 17.3836H56.6044V18.2259C56.6044 19.3281 56.4315 20.3082 54.6963 20.3082C54.1407 20.3082 53.6897 20.2552 53.3679 20.118C53.0255 19.9807 52.8325 19.7392 52.7463 19.3443H49.1036C49.5322 21.7351 51.9741 22.1997 54.5676 22.1997C59.7771 22.1997 60.1161 19.4463 60.1161 17.9849V10.1403H56.6245V11.2582H56.582C55.9396 10.3467 54.9325 9.88263 53.6047 9.88263ZM71.4923 9.88263C70.2283 9.88263 68.9413 10.0539 67.9588 10.5006C66.9705 10.9653 66.2868 11.7228 66.2236 12.8932H69.6307C69.7974 12.1362 70.4466 11.7742 71.4521 11.7742C72.199 11.7742 73.2102 12.0324 73.2102 12.7029C73.2102 13.2535 72.8655 13.4259 72.245 13.5296C69.7169 13.9424 65.7755 13.7181 65.7755 16.626C65.7755 18.4663 67.4417 19.327 69.5675 19.327C70.8948 19.327 72.2909 19.0174 73.2332 18.2259C73.2734 18.5193 73.3136 18.7931 73.4458 19.0681H77.1115C76.6805 18.3636 76.6805 17.5364 76.6805 16.7811V12.8764C76.6805 10.3473 74.1295 9.88263 71.4923 9.88263ZM47.6436 9.96796C46.0791 9.96796 44.8364 10.571 44.3009 11.7067H44.2566V10.1403H40.722V19.0681H44.3658V14.6475C44.3658 13.5308 45.3075 12.5305 47.107 12.5305C47.6 12.5305 48.0292 12.5997 48.5009 12.7029V10.0366C48.2222 9.98467 47.9223 9.96796 47.6436 9.96796ZM61.5065 10.1403V19.0681H65.1492V10.1403H61.5065ZM22.0196 11.8606C23.2411 11.8606 24.1196 12.6856 24.1845 13.6835H19.6622C19.876 12.5991 20.7343 11.8606 22.0196 11.8606ZM34.2462 12.1189C35.9388 12.1189 36.4743 13.4777 36.4743 14.6129C36.4743 15.7474 35.9388 17.0901 34.2462 17.0901C32.5529 17.0901 32.0387 15.7474 32.0387 14.6129C32.0387 13.4777 32.5529 12.1189 34.2462 12.1189ZM54.482 12.1189C56.1109 12.1189 56.6682 13.2379 56.6682 14.3731C56.6682 15.4903 56.004 16.4537 54.4607 16.4537C52.9606 16.4537 52.3613 15.4038 52.3613 14.3546C52.3613 13.2535 52.875 12.1189 54.482 12.1189ZM73.1642 14.8885C73.2504 16.7292 72.6701 17.5202 70.935 17.5202C70.1191 17.5202 69.4124 17.2273 69.4124 16.5056C69.4124 15.7999 70.1019 15.5249 70.9177 15.3693C71.7106 15.1975 72.6529 15.1462 73.1642 14.8885ZM30.9028 21.2998V24.052H35.4671V33.5835H39.4516V24.052H44.0176V21.2998H30.9028ZM65.5859 21.2998V33.5835H69.2285V28.7148C69.2285 27.7348 69.8261 26.8049 71.1993 26.8049C73.193 26.8049 73.0206 28.0438 73.0206 29.2654V33.5835H76.6633V27.8541C76.6633 26.5639 76.3645 24.3962 72.6586 24.3962C71.3314 24.3962 69.8261 24.9641 69.2688 25.8773H69.2285V21.2998H65.5859ZM46.8031 24.3962C43.5247 24.3962 40.8018 26.3581 40.8018 29.093C40.8018 32.0863 43.2667 33.8423 46.8881 33.8423C49.3731 33.8423 51.7517 32.9476 52.4165 30.8819H49.0105C48.6664 31.5357 47.8097 31.8632 46.93 31.8632C45.3874 31.8632 44.5094 31.0549 44.4451 29.8327H52.6101C52.7807 26.8049 50.7888 24.3962 46.8031 24.3962ZM59.2485 24.3962C55.6673 24.3962 53.4174 26.4261 53.4174 29.2654C53.4174 32.0009 55.9035 33.8423 59.2485 33.8423C62.2017 33.8423 64.5172 32.465 64.8389 30.0737H61.3054C61.1331 31.0197 60.4896 31.6049 59.2255 31.6049C57.68 31.6049 57.0606 30.4167 57.0606 29.2654C57.0606 28.0265 57.3824 26.6325 59.4151 26.6325C60.3402 26.6325 61.1733 27.1658 61.1963 27.9233H64.7298C64.477 25.5671 62.0121 24.3962 59.2485 24.3962ZM46.8031 26.3748C48.0246 26.3748 48.9019 27.2004 48.9668 28.1989H44.4451C44.6594 27.1139 45.5172 26.3748 46.8031 26.3748Z" fill="#CBD5E0"/>
<path d="M89.0996 39.0747H81.5557V37.6284H89.0996V39.0747ZM87.2134 28.9303L85.3267 0.534424L83.4407 28.9303H87.2134ZM89.0998 21.9795L85.3271 36.1753H89.0998V21.9795ZM81.5559 21.9795L85.3271 36.1753H81.5559V21.9795Z" stroke="#CBD5E0" stroke-width="0.858288"/>
</g>
<defs>
<clipPath id="clip0_1701_2072">
<rect width="89.0634" height="39.5837" fill="white" transform="scale(1.01052)"/>
</clipPath>
</defs>
</svg>
