<svg width="33" height="34" viewBox="0 0 33 34" fill="none" xmlns="http://www.w3.org/2000/svg">
<path fill-rule="evenodd" clip-rule="evenodd" d="M12.099 0C10.2749 0.00137917 8.79855 1.51571 8.7999 3.38173C8.79855 5.24776 10.2762 6.76209 12.1004 6.76347H15.4008V3.38311C15.4022 1.51709 13.9245 0.00275835 12.099 0C12.1004 0 12.1004 0 12.099 0V0ZM12.099 9.0198H3.30047C1.47632 9.02118 -0.00134455 10.5355 3.68454e-06 12.4015C-0.00269277 14.2676 1.47497 15.7819 3.29912 15.7846H12.099C13.9232 15.7833 15.4008 14.2689 15.3995 12.4029C15.4008 10.5355 13.9232 9.02118 12.099 9.0198Z" fill="#36C5F0"/>
<path fill-rule="evenodd" clip-rule="evenodd" d="M33 12.4015C33.0013 10.5355 31.5236 9.02118 29.6995 9.0198C27.8753 9.02118 26.3977 10.5355 26.399 12.4015V15.7846H29.6995C31.5236 15.7833 33.0013 14.2689 33 12.4015ZM24.2 12.4015V3.38174C24.2014 1.51709 22.7251 0.00275835 20.9009 0C19.0768 0.00137917 17.5991 1.51571 17.6004 3.38174V12.4015C17.5977 14.2676 19.0754 15.7819 20.8996 15.7846C22.7237 15.7833 24.2014 14.2689 24.2 12.4015Z" fill="#2EB67D"/>
<path fill-rule="evenodd" clip-rule="evenodd" d="M20.8992 33.8242C22.7234 33.8228 24.201 32.3085 24.1997 30.4425C24.201 28.5764 22.7234 27.0621 20.8992 27.0607H17.5987V30.4425C17.5974 32.3071 19.075 33.8214 20.8992 33.8242ZM20.8992 24.803H29.6991C31.5232 24.8016 33.0009 23.2873 32.9996 21.4213C33.0023 19.5553 31.5246 18.0409 29.7004 18.0382H20.9005C19.0764 18.0396 17.5987 19.5539 17.6001 21.4199C17.5987 23.2873 19.075 24.8016 20.8992 24.803Z" fill="#ECB22E"/>
<path fill-rule="evenodd" clip-rule="evenodd" d="M0.000245057 21.4213C-0.00110317 23.2873 1.47656 24.8016 3.30071 24.803C5.12487 24.8016 6.60253 23.2873 6.60118 21.4213V18.0395H3.30071C1.47656 18.0409 -0.00110317 19.5552 0.000245057 21.4213ZM8.80014 21.4213V30.4411C8.79744 32.3071 10.2751 33.8214 12.0993 33.8242C13.9234 33.8228 15.4011 32.3085 15.3997 30.4425V21.424C15.4024 19.558 13.9248 18.0437 12.1006 18.0409C10.2751 18.0409 8.79879 19.5552 8.80014 21.4213C8.80014 21.4226 8.80014 21.4213 8.80014 21.4213Z" fill="#E01E5A"/>
</svg>
