<svg width="25" height="25" viewBox="0 0 25 25" fill="none" xmlns="http://www.w3.org/2000/svg">
<g clip-path="url(#clip0_1701_5022)">
<path d="M22.2655 9.37187L14.6483 8.78594L15.7714 4.4207C16.0643 3.12187 15.7333 2.37627 14.6742 2.04766L12.9803 1.5667C12.9403 1.55607 12.8978 1.55849 12.8592 1.57359C12.8206 1.58868 12.7878 1.61569 12.7655 1.65068L6.46667 11.5306C6.43174 11.5874 6.38284 11.6343 6.32463 11.6669C6.26643 11.6994 6.20085 11.7166 6.13415 11.7166H0.781128V21.8719H6.5238C6.77572 21.8718 7.026 21.9124 7.26501 21.992L10.9906 23.2337C11.3889 23.3665 11.8061 23.4343 12.2259 23.4344H20.9139C21.8417 23.4344 22.452 22.7742 22.6341 21.8641L24.2186 14.9178V11.325C24.2186 10.2478 23.3397 9.46953 22.2655 9.37187Z" fill="#1A365D"/>
</g>
<defs>
<clipPath id="clip0_1701_5022">
<rect width="25" height="25" fill="white"/>
</clipPath>
</defs>
</svg>
