<svg width="13" height="13" viewBox="0 0 13 13" fill="none" xmlns="http://www.w3.org/2000/svg">
<path d="M4.46875 11.3749C4.91748 11.3749 5.28125 11.0112 5.28125 10.5624C5.28125 10.1137 4.91748 9.74994 4.46875 9.74994C4.02002 9.74994 3.65625 10.1137 3.65625 10.5624C3.65625 11.0112 4.02002 11.3749 4.46875 11.3749Z" fill="white"/>
<path d="M10.1562 11.3749C10.605 11.3749 10.9688 11.0112 10.9688 10.5624C10.9688 10.1137 10.605 9.74994 10.1562 9.74994C9.70752 9.74994 9.34375 10.1137 9.34375 10.5624C9.34375 11.0112 9.70752 11.3749 10.1562 11.3749Z" fill="white"/>
<path d="M11.5984 3.06681C11.5414 2.99699 11.4695 2.94077 11.3879 2.90221C11.3064 2.86365 11.2174 2.84372 11.1272 2.84388H3.39955L3.24391 1.96079C3.22731 1.86673 3.1781 1.78152 3.10492 1.72013C3.03174 1.65874 2.93927 1.62511 2.84375 1.62513H1.21875C1.11101 1.62513 1.00767 1.66793 0.931488 1.74411C0.855301 1.8203 0.8125 1.92363 0.8125 2.03138C0.8125 2.13912 0.855301 2.24245 0.931488 2.31864C1.00767 2.39483 1.11101 2.43763 1.21875 2.43763H2.50301L3.66234 9.00821C3.67894 9.10228 3.72815 9.18749 3.80133 9.24887C3.87451 9.31026 3.96698 9.34389 4.0625 9.34387H10.5625C10.6702 9.34387 10.7736 9.30107 10.8498 9.22489C10.9259 9.1487 10.9687 9.04537 10.9687 8.93762C10.9687 8.82988 10.9259 8.72655 10.8498 8.65036C10.7736 8.57418 10.6702 8.53137 10.5625 8.53137H4.40324L4.26004 7.71887H10.3959C10.5368 7.7187 10.6733 7.66985 10.7823 7.5806C10.8913 7.49134 10.9662 7.36717 10.9941 7.22909L11.7254 3.57284C11.743 3.48436 11.7408 3.39306 11.7188 3.30555C11.6968 3.21804 11.6557 3.1365 11.5984 3.06681Z" fill="white"/>
</svg>
