<svg width="15" height="15" viewBox="0 0 15 15" fill="none" xmlns="http://www.w3.org/2000/svg">
<path d="M5.15625 13.125C5.67402 13.125 6.09375 12.7053 6.09375 12.1875C6.09375 11.6697 5.67402 11.25 5.15625 11.25C4.63848 11.25 4.21875 11.6697 4.21875 12.1875C4.21875 12.7053 4.63848 13.125 5.15625 13.125Z" fill="#344767"/>
<path d="M11.7188 13.125C12.2365 13.125 12.6562 12.7053 12.6562 12.1875C12.6562 11.6697 12.2365 11.25 11.7188 11.25C11.201 11.25 10.7812 11.6697 10.7812 12.1875C10.7812 12.7053 11.201 13.125 11.7188 13.125Z" fill="#344767"/>
<path d="M13.3828 3.53872C13.317 3.45817 13.234 3.39329 13.1399 3.3488C13.0459 3.30431 12.9431 3.28131 12.8391 3.28149H3.92256L3.74297 2.26255C3.72382 2.15401 3.66704 2.05569 3.5826 1.98486C3.49816 1.91403 3.39146 1.87522 3.28125 1.87524H1.40625C1.28193 1.87524 1.1627 1.92463 1.07479 2.01254C0.986886 2.10045 0.9375 2.21967 0.9375 2.34399C0.9375 2.46831 0.986886 2.58754 1.07479 2.67545C1.1627 2.76336 1.28193 2.81274 1.40625 2.81274H2.88809L4.22578 10.3942C4.24493 10.5027 4.30171 10.601 4.38615 10.6719C4.47059 10.7427 4.57729 10.7815 4.6875 10.7815H12.1875C12.3118 10.7815 12.431 10.7321 12.519 10.6442C12.6069 10.5563 12.6562 10.4371 12.6562 10.3127C12.6562 10.1884 12.6069 10.0692 12.519 9.98129C12.431 9.89338 12.3118 9.84399 12.1875 9.84399H5.08066L4.91543 8.90649H11.9953C12.1579 8.90629 12.3154 8.84992 12.4411 8.74694C12.5669 8.64396 12.6533 8.50068 12.6855 8.34136L13.5293 4.12261C13.5496 4.02051 13.547 3.91517 13.5217 3.81419C13.4964 3.71322 13.4489 3.61913 13.3828 3.53872Z" fill="#344767"/>
</svg>
