<svg width="86" height="37" viewBox="0 0 86 37" fill="none" xmlns="http://www.w3.org/2000/svg">
<g clip-path="url(#clip0_1701_2038)">
<path d="M13.3078 33.4388C13.3078 35.0481 13.8679 35.6782 14.7242 35.6782C16.8671 35.6782 20.2813 30.6578 20.1516 25.387C23.401 21.9465 27.2963 16.5568 27.2963 12.24C27.2963 11.1951 27.0011 10.3152 25.7671 10.3152C23.8805 10.3152 21.1847 13.5787 19.4747 16.8195C17.8257 20.1769 16.2831 24.0063 14.2353 29.2619C13.7568 30.5802 13.3078 32.1768 13.3078 33.4388ZM59.6604 26.274V28.9789C59.6604 28.9789 60.9963 29.9476 63.6025 29.9476C67.5584 29.9476 69.2963 27.7323 69.2963 25.3147C69.2963 20.0754 62.2676 21.3278 62.2676 17.8511C62.2676 16.5445 63.3041 15.5991 65.044 15.5991C67.0758 15.5991 68.5724 16.6874 68.5724 16.6874V14.1838C68.5724 14.1838 67.1813 13.4101 65.1756 13.4101C61.793 13.4101 59.6855 15.5304 59.6855 18.0776C59.6855 23.2574 66.6923 22.2441 66.6923 25.6198C66.6923 27.1712 65.4214 27.7334 63.778 27.7334C61.4255 27.7334 59.6604 26.274 59.6604 26.274ZM85.1899 29.5761H82.6739V20.5836C82.6739 17.2371 81.4568 15.5638 79.0227 15.5638C77.7646 15.5638 76.724 16.0386 75.9007 16.9881C75.0773 17.9377 74.6657 19.1361 74.6657 20.5836V29.5761H72.1497V13.8084H74.6657V16.4261H74.727C75.9134 14.4346 77.6317 13.4388 79.8817 13.4388C81.6 13.4388 82.9142 13.9957 83.8245 15.1095C84.7347 16.2233 85.1899 17.8324 85.1899 19.9368L85.1899 29.5761ZM56.9138 29.5761H54.3978V20.522C54.3977 18.7769 54.1293 17.5142 53.5923 16.734C53.0554 15.9539 52.1528 15.5638 50.8846 15.5638C49.8107 15.5638 48.8979 16.0565 48.1461 17.042C47.3944 18.0275 47.0185 19.208 47.0185 20.5836V29.5761H44.5026V20.214C44.5025 17.1139 43.311 15.5638 40.928 15.5638C39.8234 15.5638 38.9132 16.0283 38.1972 16.9573C37.4813 17.8863 37.1233 19.0951 37.1233 20.5836V29.5761H34.6073V13.8084H37.1233V16.3029H37.1847C38.2995 14.3935 39.9257 13.4388 42.0632 13.4388C43.1371 13.4388 44.073 13.7391 44.8707 14.3396C45.6685 14.9402 46.2156 15.728 46.5123 16.7032C47.6782 14.527 49.4169 13.4388 51.7283 13.4388C55.1852 13.4388 56.9137 15.5792 56.9137 19.8599L56.9138 29.5761ZM4.02263 36.9573C1.8742 36.9573 0.0430329 35.6039 0.0430329 32.536C0.0430329 27.8 4.10362 24.2035 5.94595 23.1863C5.94595 23.1863 8.52359 24.6767 11.1977 25.6358C5.88445 22.2617 2.48929 16.1141 2.48929 9.29076C2.48929 2.91398 5.84279 0.0429107 8.87053 0.0429107C11.3062 0.0429107 17.0806 2.73218 17.0806 13.0515C17.0806 24.1555 11.3079 36.9573 4.02263 36.9573Z" fill="#CBD5E0"/>
</g>
<defs>
<clipPath id="clip0_1701_2038">
<rect width="85.105" height="36.9448" fill="white" transform="scale(1.00149)"/>
</clipPath>
</defs>
</svg>
