<svg width="13" height="13" viewBox="0 0 13 13" fill="none" xmlns="http://www.w3.org/2000/svg">
<g clip-path="url(#clip0_1701_5891)">
<path d="M10.1055 2.07809C9.08091 1.25831 7.80764 0.811974 6.49546 0.812623C4.94866 0.812623 3.50393 1.40854 2.42382 2.49069C1.38001 3.5378 0.807957 4.92032 0.812527 6.38256C0.812563 7.45463 1.1273 8.5031 1.7177 9.39795L1.72253 9.40481C1.72964 9.41522 1.737 9.42563 1.74436 9.43578C1.75173 9.44594 1.76087 9.45914 1.7629 9.46244L1.76848 9.4726C1.79718 9.52338 1.81927 9.58533 1.79971 9.6478L1.33202 11.3403C1.31331 11.4033 1.30306 11.4684 1.30155 11.5341C1.30121 11.7068 1.36937 11.8725 1.49107 11.995C1.61278 12.1176 1.7781 12.1868 1.95079 12.1876C2.04204 12.1846 2.13197 12.1649 2.21612 12.1295L3.92973 11.511L3.95132 11.5026C3.99793 11.483 4.04803 11.4731 4.09858 11.4734C4.1452 11.4735 4.1914 11.4821 4.23493 11.4988C4.27606 11.5148 4.64956 11.6577 5.04362 11.7679C5.37116 11.8593 6.05264 11.9964 6.58661 11.9964C8.10116 11.9964 9.51542 11.4099 10.5686 10.3445C11.6127 9.28725 12.1875 7.88188 12.1875 6.38561C12.1877 6.00153 12.147 5.61852 12.0662 5.24303C11.8036 4.00854 11.1074 2.88424 10.1055 2.07809ZM4.06253 7.31262C3.90183 7.31262 3.74474 7.26497 3.61113 7.17569C3.47751 7.08641 3.37337 6.95952 3.31187 6.81105C3.25038 6.66259 3.23429 6.49922 3.26564 6.34161C3.29699 6.184 3.37437 6.03923 3.488 5.9256C3.60163 5.81197 3.74641 5.73458 3.90402 5.70323C4.06163 5.67188 4.22499 5.68797 4.37346 5.74947C4.52192 5.81097 4.64882 5.91511 4.7381 6.04872C4.82737 6.18233 4.87503 6.33942 4.87503 6.50012C4.87503 6.71561 4.78942 6.92227 4.63705 7.07464C4.48468 7.22702 4.27802 7.31262 4.06253 7.31262ZM6.50003 7.31262C6.33933 7.31262 6.18224 7.26497 6.04863 7.17569C5.91501 7.08641 5.81087 6.95952 5.74937 6.81105C5.68788 6.66259 5.67179 6.49922 5.70314 6.34161C5.73449 6.184 5.81187 6.03923 5.9255 5.9256C6.03913 5.81197 6.18391 5.73458 6.34152 5.70323C6.49913 5.67188 6.66249 5.68797 6.81096 5.74947C6.95942 5.81097 7.08632 5.91511 7.1756 6.04872C7.26487 6.18233 7.31253 6.33942 7.31253 6.50012C7.31253 6.71561 7.22692 6.92227 7.07455 7.07464C6.92218 7.22702 6.71552 7.31262 6.50003 7.31262ZM8.93753 7.31262C8.77683 7.31262 8.61974 7.26497 8.48613 7.17569C8.35251 7.08641 8.24837 6.95952 8.18687 6.81105C8.12538 6.66259 8.10929 6.49922 8.14064 6.34161C8.17199 6.184 8.24937 6.03923 8.363 5.9256C8.47663 5.81197 8.62141 5.73458 8.77902 5.70323C8.93663 5.67188 9.09999 5.68797 9.24846 5.74947C9.39692 5.81097 9.52382 5.91511 9.6131 6.04872C9.70237 6.18233 9.75003 6.33942 9.75003 6.50012C9.75003 6.71561 9.66442 6.92227 9.51205 7.07464C9.35968 7.22702 9.15302 7.31262 8.93753 7.31262Z" fill="#718096"/>
</g>
<defs>
<clipPath id="clip0_1701_5891">
<rect width="13" height="13" fill="white"/>
</clipPath>
</defs>
</svg>
