<svg width="24" height="24" viewBox="0 0 24 24" fill="none" xmlns="http://www.w3.org/2000/svg">
<path d="M21.0519 18.7081L13.063 3.87216C12.4968 2.82028 10.9883 2.82028 10.4216 3.87216L2.43317 18.7081C2.31022 18.9364 2.24858 19.1928 2.25427 19.4521C2.25995 19.7113 2.33276 19.9647 2.4656 20.1875C2.59843 20.4102 2.78675 20.5947 3.01217 20.723C3.2376 20.8512 3.49242 20.9188 3.75176 20.9192H19.731C19.9905 20.9192 20.2456 20.8519 20.4714 20.7238C20.6971 20.5957 20.8858 20.4113 21.0189 20.1885C21.152 19.9657 21.225 19.7121 21.2308 19.4526C21.2366 19.1932 21.175 18.9366 21.0519 18.7081ZM11.7425 18.6223C11.5571 18.6223 11.3759 18.5673 11.2217 18.4643C11.0675 18.3613 10.9474 18.2149 10.8764 18.0436C10.8054 17.8723 10.7869 17.6838 10.8231 17.5019C10.8592 17.3201 10.9485 17.153 11.0796 17.0219C11.2107 16.8908 11.3778 16.8015 11.5596 16.7653C11.7415 16.7291 11.93 16.7477 12.1013 16.8187C12.2726 16.8896 12.419 17.0098 12.522 17.164C12.6251 17.3181 12.68 17.4994 12.68 17.6848C12.68 17.8079 12.6558 17.9298 12.6087 18.0436C12.5616 18.1573 12.4925 18.2607 12.4055 18.3477C12.3184 18.4348 12.215 18.5038 12.1013 18.5509C11.9876 18.5981 11.8657 18.6223 11.7425 18.6223ZM12.7607 9.1934L12.4916 14.9122C12.4916 15.1111 12.4126 15.3018 12.2719 15.4425C12.1313 15.5831 11.9405 15.6622 11.7416 15.6622C11.5427 15.6622 11.3519 15.5831 11.2113 15.4425C11.0706 15.3018 10.9916 15.1111 10.9916 14.9122L10.7225 9.19575C10.7165 9.05915 10.738 8.92273 10.7858 8.79463C10.8336 8.66652 10.9067 8.54935 11.0008 8.4501C11.0948 8.35084 11.2079 8.27154 11.3332 8.21692C11.4586 8.1623 11.5936 8.13347 11.7304 8.13216H11.7402C11.8779 8.13208 12.0141 8.1599 12.1407 8.21394C12.2673 8.26797 12.3817 8.34709 12.4769 8.44653C12.5721 8.54597 12.6461 8.66367 12.6946 8.79252C12.743 8.92136 12.7649 9.05869 12.7588 9.19622L12.7607 9.1934Z" fill="#ED8936"/>
</svg>
