<svg width="25" height="25" viewBox="0 0 25 25" fill="none" xmlns="http://www.w3.org/2000/svg">
<path d="M16.2421 3.15295C15.2919 2.12708 13.9648 1.56213 12.4999 1.56213C11.0273 1.56213 9.69573 2.12366 8.74992 3.14319C7.79387 4.17395 7.32805 5.57483 7.43743 7.08752C7.65422 10.0719 9.92522 12.4996 12.4999 12.4996C15.0746 12.4996 17.3417 10.0724 17.5619 7.0885C17.6728 5.58948 17.204 4.19153 16.2421 3.15295Z" fill="#1A365D"/>
<path d="M21.0937 23.436H3.90616C3.68119 23.439 3.4584 23.3917 3.254 23.2977C3.04959 23.2037 2.86871 23.0653 2.72452 22.8926C2.40714 22.5132 2.27921 21.9951 2.37394 21.4712C2.78605 19.1851 4.07218 17.2646 6.09366 15.9165C7.88956 14.7197 10.1645 14.061 12.4999 14.061C14.8354 14.061 17.1103 14.7202 18.9062 15.9165C20.9276 17.2642 22.2138 19.1846 22.6259 21.4707C22.7206 21.9946 22.5927 22.5127 22.2753 22.8921C22.1312 23.0649 21.9503 23.2034 21.7459 23.2975C21.5415 23.3916 21.3187 23.4389 21.0937 23.436Z" fill="#1A365D"/>
</svg>
