<svg width="25" height="25" viewBox="0 0 25 25" fill="none" xmlns="http://www.w3.org/2000/svg">
<path d="M8.59363 21.8749C9.45657 21.8749 10.1561 21.1753 10.1561 20.3124C10.1561 19.4494 9.45657 18.7499 8.59363 18.7499C7.73068 18.7499 7.03113 19.4494 7.03113 20.3124C7.03113 21.1753 7.73068 21.8749 8.59363 21.8749Z" fill="#1A365D"/>
<path d="M19.5311 21.8749C20.3941 21.8749 21.0936 21.1753 21.0936 20.3124C21.0936 19.4494 20.3941 18.7499 19.5311 18.7499C18.6682 18.7499 17.9686 19.4494 17.9686 20.3124C17.9686 21.1753 18.6682 21.8749 19.5311 21.8749Z" fill="#1A365D"/>
<path d="M22.3046 5.8977C22.1948 5.76345 22.0565 5.65532 21.8998 5.58117C21.743 5.50701 21.5717 5.4687 21.3983 5.46899H6.53747L6.23816 3.77075C6.20624 3.58986 6.11161 3.42599 5.97087 3.30794C5.83014 3.18989 5.65232 3.12521 5.46863 3.12524H2.34363C2.13643 3.12524 1.93771 3.20755 1.7912 3.35407C1.64469 3.50058 1.56238 3.69929 1.56238 3.90649C1.56238 4.11369 1.64469 4.31241 1.7912 4.45892C1.93771 4.60543 2.13643 4.68774 2.34363 4.68774H4.81335L7.04285 17.3235C7.07476 17.5044 7.1694 17.6682 7.31013 17.7863C7.45086 17.9043 7.62869 17.969 7.81238 17.969H20.3124C20.5196 17.969 20.7183 17.8867 20.8648 17.7402C21.0113 17.5937 21.0936 17.3949 21.0936 17.1877C21.0936 16.9805 21.0113 16.7818 20.8648 16.6353C20.7183 16.4888 20.5196 16.4065 20.3124 16.4065H8.46765L8.19226 14.844H19.9921C20.263 14.8436 20.5255 14.7497 20.7351 14.5781C20.9448 14.4064 21.0886 14.1676 21.1425 13.9021L22.5487 6.87085C22.5826 6.70068 22.5783 6.52512 22.536 6.35683C22.4938 6.18854 22.4148 6.03172 22.3046 5.8977Z" fill="#1A365D"/>
</svg>
