<svg width="20" height="20" viewBox="0 0 20 20" fill="none" xmlns="http://www.w3.org/2000/svg">
<path d="M15.625 1.87476H4.375C3.71218 1.87548 3.07672 2.1391 2.60803 2.60779C2.13935 3.07647 1.87572 3.71194 1.875 4.37476V15.6248C1.87572 16.2876 2.13935 16.923 2.60803 17.3917C3.07672 17.8604 3.71218 18.124 4.375 18.1248H15.625C16.2878 18.124 16.9233 17.8604 17.392 17.3917C17.8606 16.923 18.1243 16.2876 18.125 15.6248V4.37476C18.1243 3.71194 17.8606 3.07647 17.392 2.60779C16.9233 2.1391 16.2878 1.87548 15.625 1.87476ZM14.2285 7.27671L8.97851 13.5267C8.92093 13.5953 8.84927 13.6507 8.76839 13.6892C8.68752 13.7277 8.59932 13.7483 8.50976 13.7498H8.49922C8.41161 13.7497 8.325 13.7313 8.24498 13.6956C8.16497 13.6599 8.09335 13.6079 8.03476 13.5427L5.78476 11.0427C5.72762 10.9821 5.68317 10.9107 5.65403 10.8327C5.62488 10.7546 5.61162 10.6716 5.61504 10.5883C5.61846 10.5051 5.63847 10.4234 5.67392 10.348C5.70936 10.2726 5.75952 10.2051 5.82143 10.1494C5.88335 10.0937 5.95578 10.0509 6.03447 10.0236C6.11315 9.99624 6.19651 9.98491 6.27963 9.99026C6.36276 9.99561 6.44398 10.0175 6.51851 10.0547C6.59305 10.0919 6.6594 10.1436 6.71367 10.2068L8.48281 12.1724L13.2715 6.4728C13.3789 6.34861 13.5309 6.27168 13.6945 6.25864C13.8582 6.2456 14.0205 6.29749 14.1462 6.4031C14.2719 6.50871 14.351 6.65956 14.3664 6.82303C14.3818 6.9865 14.3323 7.14947 14.2285 7.27671Z" fill="#4FD1C5"/>
</svg>
